<svg id="svg" version="1.1" xmlns="http://www.w3.org/2000/svg" xmlns:xlink="http://www.w3.org/1999/xlink" width="400" height="400" viewBox="0, 0, 400,400"><g id="svgg"><path id="path0" d="M218.387 40.543 C 218.187 40.840,217.931 41.290,217.818 41.542 C 217.705 41.794,217.550 42.000,217.473 42.000 C 217.396 42.000,217.333 42.150,217.333 42.333 C 217.333 42.517,217.273 42.667,217.200 42.667 C 217.126 42.667,216.901 42.985,216.698 43.375 C 216.496 43.765,216.144 44.383,215.915 44.750 C 215.687 45.117,215.387 45.642,215.250 45.917 C 215.113 46.192,214.853 46.642,214.672 46.917 C 214.491 47.192,214.192 47.693,214.007 48.030 C 213.822 48.368,213.595 48.691,213.502 48.749 C 213.409 48.806,213.333 48.999,213.333 49.177 C 213.333 49.354,213.273 49.500,213.200 49.500 C 213.126 49.500,212.901 49.819,212.698 50.208 C 212.495 50.598,212.181 51.142,212.000 51.417 C 211.819 51.692,211.505 52.235,211.302 52.625 C 211.099 53.015,210.874 53.333,210.800 53.333 C 210.727 53.333,210.667 53.483,210.667 53.667 C 210.667 53.850,210.607 54.000,210.533 54.000 C 210.460 54.000,210.232 54.319,210.026 54.708 C 209.821 55.098,209.559 55.567,209.446 55.750 C 209.332 55.933,209.073 56.383,208.870 56.750 C 208.668 57.117,208.315 57.717,208.086 58.083 C 207.857 58.450,207.504 59.069,207.302 59.458 C 207.099 59.848,206.874 60.167,206.800 60.167 C 206.727 60.167,206.667 60.317,206.667 60.500 C 206.667 60.683,206.607 60.833,206.533 60.833 C 206.460 60.833,206.234 61.152,206.031 61.542 C 205.828 61.931,205.514 62.475,205.333 62.750 C 205.152 63.025,204.838 63.569,204.636 63.958 C 204.433 64.348,204.207 64.667,204.133 64.667 C 204.060 64.667,204.000 64.817,204.000 65.000 C 204.000 65.183,203.940 65.333,203.867 65.333 C 203.793 65.333,203.565 65.652,203.360 66.042 C 203.154 66.431,202.893 66.900,202.779 67.083 C 202.664 67.267,202.366 67.792,202.114 68.250 C 201.863 68.708,201.511 69.308,201.331 69.583 C 201.151 69.858,200.838 70.402,200.636 70.792 C 200.433 71.181,200.207 71.500,200.133 71.500 C 200.060 71.500,200.000 71.650,200.000 71.833 C 200.000 72.017,199.940 72.167,199.867 72.167 C 199.793 72.167,199.565 72.485,199.360 72.875 C 198.831 73.878,198.603 74.259,198.347 74.567 C 198.108 74.855,198.245 75.107,204.503 85.833 C 205.813 88.079,208.062 91.942,209.501 94.417 C 210.940 96.892,213.001 100.435,214.081 102.292 C 216.221 105.969,216.168 105.909,216.581 105.125 C 217.103 104.136,217.413 103.592,217.983 102.667 C 218.294 102.162,218.543 101.712,218.536 101.667 C 218.529 101.621,218.622 101.471,218.742 101.333 C 218.862 101.196,219.092 100.821,219.253 100.500 C 219.415 100.179,219.616 99.872,219.701 99.817 C 219.786 99.762,219.873 99.612,219.895 99.483 C 219.917 99.355,220.228 98.800,220.586 98.250 C 220.944 97.700,221.254 97.145,221.274 97.017 C 221.295 96.888,221.381 96.738,221.466 96.683 C 221.551 96.628,221.754 96.321,221.917 96.000 C 222.080 95.679,222.272 95.378,222.343 95.332 C 222.415 95.285,222.498 95.137,222.528 95.002 C 222.581 94.769,222.652 94.661,223.125 94.096 C 223.240 93.959,223.333 93.736,223.333 93.600 C 223.333 93.464,223.409 93.306,223.502 93.249 C 223.595 93.191,223.831 92.830,224.027 92.447 C 224.222 92.064,224.571 91.450,224.803 91.083 C 225.034 90.717,225.216 90.379,225.207 90.333 C 225.198 90.287,225.289 90.138,225.408 90.000 C 225.528 89.862,225.758 89.487,225.920 89.167 C 226.081 88.846,226.272 88.545,226.343 88.498 C 226.415 88.452,226.498 88.305,226.528 88.172 C 226.559 88.039,226.643 87.852,226.716 87.757 C 227.120 87.230,227.966 85.833,227.881 85.833 C 227.826 85.833,227.897 85.702,228.037 85.542 C 228.178 85.381,228.425 84.987,228.586 84.667 C 228.748 84.346,228.938 84.045,229.010 83.998 C 229.081 83.952,229.165 83.804,229.195 83.669 C 229.248 83.436,229.318 83.328,229.792 82.763 C 229.906 82.626,230.000 82.403,230.000 82.267 C 230.000 82.131,230.076 81.973,230.169 81.915 C 230.262 81.858,230.498 81.497,230.693 81.114 C 230.889 80.730,231.238 80.117,231.469 79.750 C 231.701 79.383,231.883 79.046,231.874 79.000 C 231.865 78.954,231.955 78.804,232.075 78.667 C 232.195 78.529,232.425 78.154,232.586 77.833 C 232.748 77.512,232.938 77.212,233.010 77.165 C 233.081 77.118,233.165 76.971,233.195 76.838 C 233.225 76.705,233.310 76.518,233.383 76.423 C 233.787 75.897,234.633 74.500,234.548 74.500 C 234.493 74.500,234.563 74.369,234.704 74.208 C 234.845 74.048,235.092 73.654,235.253 73.333 C 235.415 73.012,235.605 72.712,235.677 72.665 C 235.748 72.618,235.831 72.470,235.862 72.336 C 235.914 72.102,235.985 71.994,236.458 71.429 C 236.573 71.293,236.667 71.100,236.667 71.000 C 236.667 70.901,236.817 70.598,237.000 70.327 C 237.183 70.055,237.483 69.611,237.667 69.340 C 237.850 69.069,238.000 68.743,238.000 68.616 C 238.000 68.489,238.150 68.249,238.334 68.082 C 238.518 67.916,238.634 67.745,238.592 67.703 C 238.549 67.660,238.699 67.384,238.924 67.089 C 239.149 66.793,239.333 66.477,239.333 66.385 C 239.333 66.293,239.482 66.047,239.663 65.837 C 239.845 65.628,239.953 65.392,239.903 65.312 C 239.854 65.232,239.876 65.167,239.952 65.167 C 240.028 65.167,240.235 64.885,240.412 64.542 C 240.588 64.198,240.881 63.748,241.062 63.542 C 241.243 63.335,241.329 63.167,241.253 63.167 C 241.177 63.167,241.230 63.035,241.371 62.875 C 241.511 62.715,241.758 62.321,241.920 62.000 C 242.081 61.679,242.272 61.378,242.343 61.332 C 242.415 61.285,242.498 61.137,242.528 61.002 C 242.581 60.769,242.652 60.661,243.125 60.096 C 243.240 59.959,243.333 59.736,243.333 59.600 C 243.333 59.464,243.409 59.306,243.502 59.249 C 243.595 59.191,243.831 58.830,244.027 58.447 C 244.222 58.064,244.575 57.450,244.811 57.083 C 245.046 56.717,245.243 56.379,245.247 56.333 C 245.251 56.288,245.310 56.163,245.378 56.057 C 245.528 55.821,245.352 55.302,245.163 55.419 C 245.088 55.465,244.922 55.399,244.795 55.271 C 244.667 55.143,244.267 54.878,243.906 54.682 C 243.545 54.486,242.950 54.138,242.583 53.910 C 242.217 53.681,241.767 53.422,241.583 53.333 C 241.400 53.245,240.950 52.984,240.583 52.754 C 240.217 52.524,239.598 52.171,239.208 51.968 C 238.819 51.766,238.500 51.540,238.500 51.467 C 238.500 51.393,238.356 51.333,238.181 51.333 C 238.005 51.333,237.836 51.277,237.806 51.208 C 237.734 51.048,236.024 50.000,235.834 50.000 C 235.755 50.000,235.581 49.890,235.446 49.756 C 235.312 49.622,235.102 49.490,234.980 49.464 C 234.768 49.419,234.658 49.346,234.096 48.875 C 233.959 48.760,233.732 48.667,233.590 48.667 C 233.449 48.667,233.333 48.607,233.333 48.533 C 233.333 48.460,233.015 48.232,232.625 48.026 C 232.235 47.821,231.767 47.559,231.583 47.446 C 231.400 47.332,230.950 47.073,230.583 46.870 C 230.217 46.668,229.617 46.315,229.250 46.086 C 228.883 45.857,228.265 45.504,227.875 45.302 C 227.485 45.099,227.167 44.874,227.167 44.800 C 227.167 44.727,227.017 44.667,226.833 44.667 C 226.650 44.667,226.500 44.597,226.500 44.511 C 226.500 44.426,226.356 44.310,226.179 44.254 C 226.003 44.198,225.590 43.970,225.263 43.748 C 224.935 43.525,224.667 43.385,224.667 43.437 C 224.667 43.488,224.451 43.354,224.188 43.140 C 223.620 42.678,222.678 42.127,222.350 42.066 C 222.222 42.042,222.072 41.953,222.017 41.868 C 221.962 41.783,221.654 41.580,221.333 41.417 C 221.012 41.254,220.712 41.062,220.665 40.990 C 220.618 40.919,220.470 40.835,220.336 40.805 C 220.102 40.752,219.994 40.682,219.429 40.208 C 219.036 39.879,218.777 39.962,218.387 40.543 M179.880 106.035 C 179.786 106.153,179.576 106.513,179.414 106.833 C 179.252 107.154,179.051 107.462,178.966 107.517 C 178.881 107.572,178.795 107.727,178.775 107.861 C 178.756 107.995,178.592 108.299,178.411 108.536 C 177.975 109.110,177.454 110.027,177.399 110.317 C 177.375 110.445,177.286 110.595,177.201 110.650 C 177.116 110.705,176.913 111.013,176.750 111.333 C 176.587 111.654,176.384 111.962,176.299 112.017 C 176.214 112.072,176.129 112.224,176.109 112.355 C 176.090 112.487,175.926 112.817,175.746 113.089 C 175.178 113.945,175.000 114.238,174.788 114.667 C 174.675 114.896,174.439 115.308,174.264 115.583 C 173.686 116.490,173.495 116.828,173.485 116.957 C 173.480 117.026,173.378 117.196,173.258 117.333 C 173.138 117.471,172.908 117.846,172.747 118.167 C 172.585 118.487,172.384 118.795,172.299 118.850 C 172.214 118.905,172.127 119.055,172.105 119.183 C 172.083 119.312,171.773 119.867,171.417 120.417 C 171.061 120.967,170.779 121.454,170.790 121.500 C 170.801 121.546,170.711 121.696,170.592 121.833 C 170.472 121.971,170.242 122.346,170.080 122.667 C 169.919 122.987,169.717 123.295,169.632 123.350 C 169.547 123.405,169.461 123.566,169.440 123.708 C 169.419 123.850,169.319 124.068,169.218 124.192 C 169.117 124.315,168.831 124.792,168.583 125.250 C 168.334 125.708,167.963 126.346,167.759 126.667 C 167.059 127.763,166.828 128.163,166.819 128.290 C 166.814 128.360,166.711 128.529,166.592 128.667 C 166.472 128.804,166.242 129.179,166.080 129.500 C 165.919 129.821,165.717 130.128,165.632 130.183 C 165.547 130.238,165.460 130.388,165.438 130.517 C 165.416 130.645,165.105 131.200,164.747 131.750 C 164.389 132.300,164.079 132.855,164.059 132.983 C 164.039 133.112,163.953 133.262,163.868 133.317 C 163.783 133.372,163.580 133.675,163.418 133.992 C 163.256 134.308,163.020 134.670,162.894 134.797 C 162.767 134.923,162.706 135.096,162.758 135.180 C 162.810 135.264,162.787 135.333,162.706 135.333 C 162.625 135.333,162.389 135.652,162.181 136.042 C 161.973 136.431,161.625 137.050,161.408 137.417 C 161.191 137.783,160.889 138.308,160.736 138.583 C 160.584 138.858,160.345 139.215,160.204 139.375 C 160.063 139.535,160.009 139.667,160.083 139.667 C 160.158 139.667,160.103 139.798,159.963 139.958 C 159.822 140.119,159.575 140.512,159.414 140.833 C 159.252 141.154,159.051 141.462,158.966 141.517 C 158.881 141.572,158.793 141.722,158.771 141.850 C 158.749 141.978,158.438 142.533,158.080 143.083 C 157.722 143.633,157.413 144.188,157.392 144.317 C 157.372 144.445,157.286 144.595,157.201 144.650 C 157.116 144.705,156.914 145.009,156.752 145.325 C 156.589 145.642,156.353 146.004,156.227 146.130 C 156.100 146.257,156.040 146.429,156.092 146.513 C 156.144 146.598,156.120 146.667,156.039 146.667 C 155.959 146.667,155.710 147.007,155.488 147.422 C 154.833 148.645,154.610 149.037,154.068 149.917 C 153.785 150.375,153.561 150.798,153.569 150.858 C 153.577 150.917,153.461 151.104,153.312 151.274 C 153.162 151.444,152.908 151.846,152.747 152.167 C 152.585 152.487,152.384 152.795,152.299 152.850 C 152.214 152.905,152.127 153.055,152.105 153.183 C 152.083 153.312,151.773 153.867,151.417 154.417 C 151.061 154.967,150.803 155.428,150.843 155.441 C 150.884 155.454,150.794 155.604,150.645 155.774 C 150.496 155.944,150.242 156.346,150.080 156.667 C 149.919 156.987,149.728 157.288,149.657 157.335 C 149.585 157.382,149.502 157.530,149.472 157.664 C 149.419 157.898,149.348 158.006,148.875 158.571 C 148.760 158.707,148.667 158.931,148.667 159.066 C 148.667 159.202,148.591 159.361,148.498 159.418 C 148.405 159.476,148.169 159.836,147.973 160.220 C 147.778 160.603,147.452 161.179,147.250 161.500 C 147.047 161.821,146.890 162.132,146.899 162.191 C 146.909 162.250,146.794 162.437,146.645 162.608 C 146.496 162.778,146.242 163.179,146.080 163.500 C 145.919 163.821,145.728 164.122,145.657 164.168 C 145.585 164.215,145.502 164.362,145.472 164.495 C 145.441 164.628,145.357 164.815,145.284 164.910 C 144.880 165.437,144.034 166.833,144.119 166.833 C 144.174 166.833,144.103 166.965,143.963 167.125 C 143.822 167.285,143.575 167.679,143.414 168.000 C 143.252 168.321,143.062 168.622,142.990 168.668 C 142.919 168.715,142.835 168.863,142.805 168.998 C 142.752 169.231,142.682 169.339,142.208 169.904 C 142.094 170.041,142.000 170.264,142.000 170.400 C 142.000 170.536,141.924 170.694,141.831 170.751 C 141.738 170.809,141.502 171.170,141.307 171.553 C 141.111 171.936,140.758 172.550,140.523 172.917 C 140.287 173.283,140.092 173.621,140.089 173.667 C 140.085 173.713,139.914 173.987,139.708 174.276 C 139.502 174.565,139.333 174.872,139.333 174.959 C 139.333 175.045,139.185 175.287,139.003 175.496 C 138.822 175.705,138.714 175.942,138.763 176.022 C 138.813 176.101,138.791 176.167,138.714 176.167 C 138.638 176.167,138.431 176.448,138.255 176.792 C 138.078 177.135,137.786 177.585,137.605 177.792 C 137.423 177.998,137.330 178.167,137.396 178.167 C 137.463 178.167,137.326 178.417,137.092 178.724 C 136.858 179.031,136.667 179.363,136.667 179.462 C 136.667 179.562,136.557 179.753,136.423 179.887 C 136.288 180.021,136.157 180.231,136.131 180.353 C 136.085 180.566,136.012 180.675,135.542 181.237 C 135.427 181.374,135.333 181.602,135.333 181.743 C 135.333 181.884,135.270 182.000,135.192 182.000 C 135.114 182.000,134.915 182.300,134.750 182.668 C 134.584 183.035,134.348 183.419,134.224 183.521 C 134.101 183.624,134.000 183.839,134.000 184.000 C 134.000 184.161,133.880 184.392,133.733 184.514 C 133.586 184.636,133.399 184.889,133.319 185.076 C 133.238 185.264,132.984 185.717,132.754 186.083 C 132.524 186.450,132.171 187.069,131.968 187.458 C 131.766 187.848,131.540 188.167,131.467 188.167 C 131.393 188.167,131.333 188.274,131.333 188.405 C 131.333 188.536,131.033 189.095,130.667 189.647 C 130.300 190.199,130.000 190.724,130.000 190.813 C 130.000 190.903,129.890 191.086,129.756 191.220 C 129.622 191.354,129.490 191.564,129.464 191.687 C 129.419 191.899,129.346 192.008,128.875 192.571 C 128.760 192.707,128.667 192.900,128.667 193.000 C 128.667 193.099,128.517 193.402,128.333 193.673 C 128.150 193.945,127.850 194.389,127.667 194.660 C 127.483 194.931,127.333 195.257,127.333 195.384 C 127.333 195.511,127.183 195.751,126.999 195.918 C 126.815 196.084,126.699 196.255,126.742 196.297 C 126.784 196.340,126.653 196.609,126.451 196.896 C 125.929 197.634,125.715 197.986,125.299 198.792 C 125.098 199.181,124.874 199.500,124.800 199.500 C 124.727 199.500,124.667 199.607,124.667 199.738 C 124.667 199.869,124.367 200.428,124.000 200.980 C 123.633 201.532,123.333 202.057,123.333 202.147 C 123.333 202.236,123.224 202.419,123.089 202.554 C 122.955 202.688,122.824 202.898,122.798 203.020 C 122.752 203.232,122.679 203.342,122.208 203.904 C 122.094 204.041,122.000 204.234,122.000 204.333 C 122.000 204.504,121.883 204.699,121.031 205.952 C 120.831 206.246,120.667 206.590,120.667 206.717 C 120.667 206.844,120.516 207.085,120.332 207.251 C 120.148 207.417,120.033 207.588,120.075 207.631 C 120.118 207.673,119.987 207.942,119.784 208.229 C 119.262 208.967,119.049 209.319,118.633 210.125 C 118.431 210.515,118.207 210.833,118.133 210.833 C 118.060 210.833,118.000 210.941,118.000 211.072 C 118.000 211.203,117.700 211.761,117.333 212.313 C 116.967 212.865,116.667 213.390,116.667 213.480 C 116.667 213.570,116.557 213.753,116.423 213.887 C 116.288 214.021,116.157 214.231,116.131 214.353 C 116.085 214.566,116.012 214.675,115.542 215.237 C 115.427 215.374,115.333 215.567,115.333 215.666 C 115.333 215.766,115.183 216.069,115.000 216.340 C 114.817 216.611,114.517 217.055,114.333 217.327 C 114.150 217.598,114.000 217.926,114.000 218.056 C 114.000 218.186,113.880 218.392,113.733 218.514 C 113.586 218.636,113.399 218.889,113.319 219.076 C 113.238 219.264,112.984 219.717,112.754 220.083 C 112.524 220.450,112.171 221.069,111.968 221.458 C 111.766 221.848,111.540 222.167,111.467 222.167 C 111.393 222.167,111.333 222.274,111.333 222.405 C 111.333 222.536,111.033 223.095,110.667 223.647 C 110.300 224.199,110.000 224.724,110.000 224.813 C 110.000 224.903,109.890 225.086,109.756 225.220 C 109.622 225.354,109.490 225.564,109.464 225.687 C 109.419 225.899,109.346 226.008,108.875 226.571 C 108.760 226.707,108.667 226.935,108.667 227.076 C 108.667 227.218,108.607 227.333,108.533 227.333 C 108.460 227.333,108.235 227.652,108.034 228.042 C 107.833 228.431,107.598 228.862,107.513 229.000 C 107.427 229.137,107.070 229.737,106.720 230.333 C 106.370 230.928,105.993 231.566,105.882 231.749 C 105.771 231.933,105.513 232.402,105.307 232.792 C 105.102 233.181,104.874 233.500,104.800 233.500 C 104.727 233.500,104.667 233.650,104.667 233.833 C 104.667 234.017,104.606 234.167,104.531 234.167 C 104.456 234.167,104.270 234.410,104.118 234.708 C 103.965 235.006,103.652 235.550,103.422 235.917 C 103.191 236.283,102.837 236.902,102.635 237.292 C 102.432 237.681,102.207 238.000,102.133 238.000 C 102.060 238.000,102.000 238.116,102.000 238.257 C 102.000 238.398,101.836 238.754,101.636 239.048 C 100.845 240.211,100.667 240.490,100.667 240.568 C 100.667 240.636,99.956 241.870,99.217 243.083 C 99.105 243.267,98.846 243.735,98.640 244.125 C 98.435 244.515,98.207 244.833,98.133 244.833 C 98.060 244.833,98.000 244.983,98.000 245.167 C 98.000 245.350,97.940 245.500,97.867 245.500 C 97.793 245.500,97.567 245.819,97.364 246.208 C 97.162 246.598,96.848 247.142,96.667 247.417 C 96.486 247.692,96.172 248.235,95.969 248.625 C 95.766 249.015,95.540 249.333,95.467 249.333 C 95.393 249.333,95.333 249.483,95.333 249.667 C 95.333 249.850,95.273 250.000,95.200 250.000 C 95.126 250.000,94.898 250.319,94.693 250.708 C 94.487 251.098,94.226 251.567,94.112 251.750 C 93.998 251.933,93.739 252.383,93.537 252.750 C 93.334 253.117,92.981 253.717,92.752 254.083 C 92.523 254.450,92.171 255.069,91.968 255.458 C 91.766 255.848,91.540 256.167,91.467 256.167 C 91.393 256.167,91.333 256.317,91.333 256.500 C 91.333 256.683,91.273 256.833,91.200 256.833 C 91.126 256.833,90.901 257.152,90.698 257.542 C 90.495 257.931,90.181 258.475,90.000 258.750 C 89.819 259.025,89.505 259.569,89.302 259.958 C 89.099 260.348,88.874 260.667,88.800 260.667 C 88.727 260.667,88.667 260.817,88.667 261.000 C 88.667 261.183,88.607 261.333,88.533 261.333 C 88.460 261.333,88.232 261.652,88.026 262.042 C 87.821 262.431,87.559 262.900,87.445 263.083 C 87.331 263.267,87.032 263.792,86.781 264.250 C 86.530 264.708,86.177 265.308,85.998 265.583 C 85.818 265.858,85.505 266.402,85.302 266.792 C 85.099 267.181,84.874 267.500,84.800 267.500 C 84.727 267.500,84.667 267.650,84.667 267.833 C 84.667 268.017,84.607 268.167,84.533 268.167 C 84.460 268.167,84.234 268.485,84.031 268.875 C 83.828 269.265,83.514 269.808,83.333 270.083 C 83.152 270.358,82.838 270.902,82.636 271.292 C 82.433 271.681,82.207 272.000,82.133 272.000 C 82.060 272.000,82.000 272.150,82.000 272.333 C 82.000 272.517,81.940 272.667,81.867 272.667 C 81.793 272.667,81.568 272.985,81.365 273.375 C 81.163 273.765,80.810 274.383,80.582 274.750 C 80.353 275.117,80.052 275.642,79.912 275.917 C 79.657 276.419,79.515 276.658,78.929 277.583 C 78.217 278.706,78.095 278.927,78.059 279.150 C 78.039 279.278,77.953 279.428,77.868 279.483 C 77.783 279.538,77.581 279.846,77.420 280.167 C 77.258 280.487,77.011 280.881,76.871 281.042 C 76.730 281.202,76.671 281.333,76.739 281.333 C 76.807 281.333,76.682 281.548,76.461 281.811 C 76.240 282.074,75.961 282.524,75.843 282.811 C 75.724 283.098,75.556 283.333,75.470 283.333 C 75.384 283.333,75.356 283.402,75.408 283.487 C 75.460 283.571,75.399 283.744,75.271 283.872 C 75.143 284.000,74.881 284.413,74.688 284.791 C 74.496 285.168,74.261 285.525,74.166 285.584 C 74.072 285.642,74.035 285.754,74.083 285.833 C 74.132 285.912,74.091 286.027,73.992 286.088 C 73.894 286.149,73.743 286.383,73.658 286.607 C 73.529 286.944,69.830 293.308,65.726 300.250 C 65.238 301.075,62.752 305.297,60.201 309.632 C 57.649 313.967,55.439 317.657,55.289 317.833 C 55.139 318.008,54.890 318.398,54.735 318.701 C 54.580 319.003,54.384 319.295,54.299 319.350 C 54.214 319.405,54.129 319.557,54.109 319.689 C 54.090 319.820,53.926 320.150,53.746 320.423 C 53.179 321.276,53.004 321.572,52.836 321.961 C 52.746 322.168,52.532 322.543,52.360 322.794 C 51.857 323.528,51.546 324.075,51.565 324.191 C 51.575 324.250,51.461 324.437,51.312 324.608 C 51.162 324.778,50.908 325.179,50.747 325.500 C 50.585 325.821,50.384 326.128,50.299 326.183 C 50.214 326.238,50.128 326.393,50.109 326.527 C 50.089 326.662,49.925 326.965,49.745 327.203 C 49.308 327.776,48.787 328.694,48.733 328.983 C 48.709 329.112,48.619 329.262,48.534 329.317 C 48.449 329.372,48.246 329.679,48.083 330.000 C 47.920 330.321,47.717 330.628,47.632 330.683 C 47.547 330.738,47.462 330.891,47.443 331.022 C 47.424 331.153,47.260 331.484,47.079 331.756 C 46.511 332.612,46.333 332.904,46.121 333.333 C 46.008 333.563,45.784 333.956,45.624 334.208 C 45.074 335.074,44.880 335.417,44.845 335.583 C 44.825 335.675,44.711 335.862,44.592 336.000 C 44.472 336.137,44.242 336.509,44.082 336.825 C 43.921 337.142,43.687 337.504,43.560 337.630 C 43.434 337.757,43.368 337.921,43.413 337.995 C 43.459 338.068,43.387 338.220,43.253 338.331 C 42.957 338.577,43.144 338.807,44.000 339.250 C 44.312 339.411,44.670 339.647,44.797 339.773 C 44.923 339.900,45.096 339.960,45.180 339.908 C 45.264 339.856,45.333 339.880,45.333 339.961 C 45.333 340.041,45.652 340.278,46.042 340.486 C 46.431 340.694,47.050 341.042,47.417 341.259 C 47.783 341.476,48.308 341.778,48.583 341.930 C 48.858 342.082,49.215 342.322,49.375 342.463 C 49.535 342.603,49.667 342.658,49.667 342.583 C 49.667 342.509,49.798 342.563,49.958 342.704 C 50.119 342.845,50.512 343.092,50.833 343.253 C 51.154 343.415,51.462 343.616,51.517 343.701 C 51.572 343.786,51.722 343.873,51.850 343.895 C 51.978 343.917,52.514 344.214,53.039 344.555 C 53.565 344.895,54.026 345.154,54.064 345.129 C 54.101 345.104,54.271 345.206,54.441 345.355 C 54.611 345.504,55.012 345.758,55.333 345.920 C 55.654 346.081,55.955 346.272,56.002 346.343 C 56.048 346.415,56.196 346.498,56.331 346.528 C 56.564 346.581,56.672 346.652,57.237 347.125 C 57.374 347.240,57.592 347.333,57.723 347.333 C 57.853 347.333,58.043 347.434,58.145 347.558 C 58.248 347.681,58.632 347.917,58.999 348.083 C 59.366 348.248,59.667 348.448,59.667 348.525 C 59.667 348.603,59.769 348.667,59.894 348.667 C 60.019 348.667,60.319 348.822,60.561 349.012 C 60.802 349.202,61.000 349.311,61.000 349.254 C 61.000 349.196,61.251 349.341,61.557 349.575 C 61.864 349.809,62.190 350.000,62.282 350.000 C 62.374 350.000,62.620 350.148,62.829 350.330 C 63.039 350.511,63.275 350.619,63.355 350.570 C 63.435 350.521,63.500 350.543,63.500 350.619 C 63.500 350.695,63.781 350.902,64.125 351.078 C 64.469 351.255,64.919 351.548,65.125 351.729 C 65.331 351.910,65.500 352.004,65.500 351.937 C 65.500 351.871,65.751 352.008,66.057 352.242 C 66.364 352.475,66.696 352.667,66.795 352.667 C 66.895 352.667,67.086 352.776,67.220 352.911 C 67.354 353.045,67.564 353.176,67.687 353.202 C 67.899 353.248,68.008 353.321,68.571 353.792 C 68.707 353.906,68.920 354.000,69.043 354.000 C 69.166 354.000,69.353 354.087,69.460 354.193 C 69.722 354.455,70.092 354.134,70.535 353.261 C 70.724 352.888,70.948 352.538,71.033 352.483 C 71.119 352.428,71.205 352.273,71.225 352.139 C 71.244 352.005,71.408 351.701,71.589 351.464 C 72.025 350.890,72.546 349.973,72.601 349.683 C 72.625 349.555,72.714 349.405,72.799 349.350 C 72.884 349.295,73.087 348.988,73.250 348.667 C 73.413 348.346,73.616 348.038,73.701 347.983 C 73.786 347.928,73.871 347.776,73.891 347.645 C 73.910 347.513,74.074 347.183,74.254 346.911 C 74.821 346.057,74.996 345.762,75.164 345.373 C 75.254 345.165,75.468 344.790,75.640 344.539 C 76.143 343.806,76.454 343.258,76.435 343.142 C 76.425 343.083,76.539 342.896,76.688 342.726 C 76.838 342.556,77.092 342.154,77.253 341.833 C 77.415 341.512,77.616 341.205,77.701 341.150 C 77.786 341.095,77.872 340.940,77.891 340.806 C 77.911 340.672,78.075 340.368,78.255 340.131 C 78.692 339.557,79.213 338.640,79.267 338.350 C 79.291 338.222,79.381 338.072,79.466 338.017 C 79.551 337.962,79.754 337.654,79.917 337.333 C 80.080 337.012,80.283 336.705,80.368 336.650 C 80.453 336.595,80.538 336.443,80.557 336.311 C 80.576 336.180,80.740 335.850,80.921 335.577 C 81.488 334.724,81.662 334.428,81.831 334.039 C 81.920 333.832,82.134 333.457,82.306 333.206 C 82.809 332.472,83.121 331.925,83.102 331.809 C 83.092 331.750,83.206 331.563,83.355 331.392 C 83.504 331.222,83.758 330.821,83.920 330.500 C 84.081 330.179,84.283 329.872,84.368 329.817 C 84.453 329.762,84.538 329.607,84.558 329.473 C 84.578 329.338,84.741 329.035,84.922 328.797 C 85.358 328.224,85.880 327.306,85.934 327.017 C 85.958 326.888,86.047 326.738,86.132 326.683 C 86.217 326.628,86.420 326.321,86.583 326.000 C 86.746 325.679,86.949 325.372,87.034 325.317 C 87.119 325.262,87.205 325.109,87.224 324.978 C 87.243 324.847,87.407 324.516,87.588 324.244 C 88.156 323.388,88.334 323.096,88.545 322.667 C 88.659 322.438,88.882 322.044,89.042 321.792 C 89.592 320.926,89.786 320.583,89.822 320.417 C 89.841 320.325,89.955 320.137,90.075 320.000 C 90.195 319.862,90.425 319.487,90.586 319.167 C 90.748 318.846,90.949 318.538,91.034 318.483 C 91.119 318.428,91.206 318.268,91.227 318.126 C 91.268 317.845,92.822 315.162,100.325 302.417 C 101.728 300.033,103.891 296.358,105.132 294.250 C 109.181 287.370,109.557 286.752,109.784 286.615 C 109.906 286.540,109.967 286.414,109.917 286.335 C 109.868 286.255,109.905 286.142,110.000 286.084 C 110.094 286.025,110.330 285.664,110.525 285.280 C 110.719 284.897,110.937 284.545,111.009 284.498 C 111.081 284.452,111.165 284.305,111.195 284.172 C 111.225 284.039,111.310 283.852,111.383 283.757 C 111.787 283.230,112.633 281.833,112.548 281.833 C 112.493 281.833,112.563 281.702,112.704 281.542 C 112.845 281.381,113.092 280.987,113.253 280.667 C 113.415 280.346,113.605 280.045,113.677 279.998 C 113.748 279.952,113.831 279.804,113.862 279.669 C 113.914 279.436,113.985 279.328,114.458 278.763 C 114.573 278.626,114.667 278.403,114.667 278.267 C 114.667 278.131,114.743 277.973,114.836 277.915 C 114.929 277.858,115.165 277.497,115.360 277.114 C 115.556 276.730,115.908 276.117,116.144 275.750 C 116.380 275.383,116.575 275.046,116.578 275.000 C 116.581 274.954,116.752 274.680,116.959 274.391 C 117.165 274.102,117.333 273.795,117.333 273.708 C 117.333 273.622,117.482 273.380,117.663 273.171 C 117.845 272.961,117.953 272.725,117.903 272.645 C 117.854 272.565,117.876 272.500,117.952 272.500 C 118.028 272.500,118.235 272.219,118.412 271.875 C 118.588 271.531,118.881 271.081,119.062 270.875 C 119.243 270.669,119.337 270.500,119.271 270.500 C 119.204 270.500,119.341 270.249,119.575 269.943 C 119.809 269.636,120.000 269.304,120.000 269.205 C 120.000 269.105,120.110 268.914,120.244 268.780 C 120.378 268.646,120.510 268.436,120.536 268.313 C 120.581 268.101,120.654 267.992,121.125 267.429 C 121.240 267.293,121.333 267.074,121.333 266.944 C 121.333 266.814,121.434 266.624,121.558 266.521 C 121.681 266.419,121.917 266.035,122.083 265.668 C 122.248 265.300,122.448 265.000,122.525 265.000 C 122.603 265.000,122.667 264.862,122.667 264.692 C 122.667 264.523,122.817 264.249,123.001 264.082 C 123.185 263.916,123.301 263.745,123.258 263.703 C 123.216 263.660,123.365 263.384,123.591 263.089 C 123.816 262.793,124.000 262.477,124.000 262.385 C 124.000 262.293,124.148 262.047,124.330 261.837 C 124.511 261.628,124.619 261.392,124.570 261.312 C 124.521 261.232,124.546 261.167,124.627 261.167 C 124.708 261.167,124.942 260.831,125.147 260.420 C 125.352 260.010,125.585 259.634,125.666 259.584 C 125.804 259.499,125.940 259.264,126.612 257.958 C 126.765 257.660,126.947 257.378,127.015 257.332 C 127.084 257.285,127.165 257.137,127.195 257.002 C 127.248 256.769,127.318 256.661,127.792 256.096 C 127.906 255.959,128.000 255.766,128.000 255.667 C 128.000 255.568,128.150 255.265,128.333 254.993 C 128.517 254.722,128.817 254.278,129.000 254.007 C 129.183 253.735,129.333 253.410,129.333 253.283 C 129.333 253.156,129.484 252.915,129.668 252.749 C 129.852 252.583,129.967 252.412,129.925 252.369 C 129.882 252.327,130.013 252.058,130.216 251.771 C 130.738 251.033,130.951 250.681,131.367 249.875 C 131.569 249.485,131.793 249.167,131.867 249.167 C 131.940 249.167,132.000 249.026,132.000 248.854 C 132.000 248.682,132.111 248.449,132.247 248.336 C 132.479 248.143,132.605 247.935,133.279 246.625 C 133.432 246.327,133.613 246.045,133.682 245.998 C 133.750 245.952,133.831 245.804,133.862 245.669 C 133.914 245.436,133.985 245.328,134.458 244.763 C 134.573 244.626,134.667 244.433,134.667 244.334 C 134.667 244.234,134.817 243.931,135.000 243.660 C 135.183 243.389,135.483 242.945,135.667 242.673 C 135.850 242.402,136.000 242.144,136.000 242.099 C 136.000 242.030,136.711 240.796,137.450 239.583 C 137.561 239.400,137.821 238.931,138.026 238.542 C 138.232 238.152,138.460 237.833,138.533 237.833 C 138.607 237.833,138.667 237.726,138.667 237.595 C 138.667 237.464,138.967 236.905,139.333 236.353 C 139.700 235.801,140.000 235.276,140.000 235.187 C 140.000 235.097,140.110 234.914,140.244 234.780 C 140.378 234.646,140.510 234.436,140.536 234.313 C 140.581 234.101,140.654 233.992,141.125 233.429 C 141.240 233.293,141.333 233.065,141.333 232.924 C 141.333 232.782,141.397 232.667,141.475 232.667 C 141.552 232.667,141.752 232.366,141.917 231.999 C 142.083 231.632,142.319 231.248,142.442 231.145 C 142.566 231.043,142.667 230.861,142.667 230.741 C 142.667 230.622,142.948 230.085,143.292 229.549 C 143.635 229.013,144.011 228.427,144.126 228.246 C 144.241 228.065,144.500 227.598,144.701 227.208 C 144.902 226.819,145.126 226.500,145.200 226.500 C 145.273 226.500,145.333 226.393,145.333 226.262 C 145.333 226.131,145.623 225.587,145.976 225.053 C 146.330 224.520,146.673 223.915,146.738 223.708 C 146.803 223.502,146.914 223.333,146.986 223.333 C 147.057 223.333,147.251 223.033,147.417 222.667 C 147.582 222.300,147.781 222.000,147.859 222.000 C 147.936 222.000,148.000 221.850,148.000 221.667 C 148.000 221.483,148.060 221.333,148.133 221.333 C 148.207 221.333,148.435 221.015,148.640 220.625 C 148.846 220.235,149.107 219.767,149.221 219.583 C 149.335 219.400,149.594 218.950,149.796 218.583 C 149.999 218.217,150.352 217.617,150.581 217.250 C 150.810 216.883,151.163 216.265,151.365 215.875 C 151.568 215.485,151.793 215.167,151.867 215.167 C 151.940 215.167,152.000 215.017,152.000 214.833 C 152.000 214.650,152.061 214.500,152.136 214.500 C 152.210 214.500,152.396 214.256,152.549 213.958 C 152.701 213.660,153.015 213.117,153.245 212.750 C 153.475 212.383,153.829 211.765,154.032 211.375 C 154.234 210.985,154.460 210.667,154.533 210.667 C 154.607 210.667,154.667 210.517,154.667 210.333 C 154.667 210.150,154.727 210.000,154.800 210.000 C 154.874 210.000,155.102 209.681,155.307 209.292 C 155.513 208.902,155.774 208.433,155.888 208.250 C 156.002 208.067,156.261 207.617,156.463 207.250 C 156.666 206.883,157.019 206.283,157.248 205.917 C 157.477 205.550,157.829 204.931,158.032 204.542 C 158.234 204.152,158.460 203.833,158.533 203.833 C 158.607 203.833,158.667 203.683,158.667 203.500 C 158.667 203.317,158.727 203.167,158.800 203.167 C 158.874 203.167,159.099 202.848,159.302 202.458 C 159.505 202.069,159.819 201.525,160.000 201.250 C 160.181 200.975,160.495 200.431,160.698 200.042 C 160.901 199.652,161.126 199.333,161.200 199.333 C 161.273 199.333,161.333 199.183,161.333 199.000 C 161.333 198.817,161.393 198.667,161.467 198.667 C 161.540 198.667,161.766 198.348,161.968 197.958 C 162.171 197.569,162.523 196.950,162.752 196.583 C 162.980 196.217,163.281 195.692,163.421 195.417 C 163.677 194.915,163.818 194.675,164.404 193.750 C 165.116 192.628,165.239 192.406,165.274 192.183 C 165.294 192.055,165.381 191.905,165.466 191.850 C 165.551 191.795,165.752 191.487,165.914 191.167 C 166.075 190.846,166.322 190.452,166.463 190.292 C 166.603 190.131,166.663 190.000,166.594 190.000 C 166.526 190.000,166.651 189.785,166.872 189.522 C 167.094 189.259,167.372 188.809,167.491 188.522 C 167.610 188.235,167.777 188.000,167.863 188.000 C 167.949 188.000,167.977 187.931,167.925 187.847 C 167.873 187.762,167.934 187.590,168.060 187.464 C 168.187 187.337,168.423 186.975,168.585 186.659 C 168.747 186.342,168.949 186.038,169.034 185.983 C 169.119 185.928,169.206 185.767,169.227 185.625 C 169.248 185.483,169.342 185.266,169.437 185.142 C 169.532 185.018,169.827 184.542,170.094 184.083 C 170.361 183.625,170.671 183.100,170.783 182.917 C 170.894 182.733,171.154 182.265,171.360 181.875 C 171.565 181.485,171.793 181.167,171.867 181.167 C 171.940 181.167,172.000 181.017,172.000 180.833 C 172.000 180.650,172.060 180.500,172.133 180.500 C 172.207 180.500,172.433 180.181,172.636 179.792 C 172.838 179.402,173.152 178.858,173.333 178.583 C 173.514 178.308,173.828 177.765,174.031 177.375 C 174.234 176.985,174.460 176.667,174.533 176.667 C 174.607 176.667,174.667 176.517,174.667 176.333 C 174.667 176.150,174.727 176.000,174.800 176.000 C 174.874 176.000,175.099 175.681,175.302 175.292 C 175.504 174.902,175.856 174.283,176.085 173.917 C 176.313 173.550,176.615 173.025,176.755 172.750 C 177.001 172.265,177.133 172.040,177.683 171.167 C 178.462 169.930,178.573 169.731,178.607 169.517 C 178.628 169.388,178.714 169.238,178.799 169.183 C 178.884 169.128,179.085 168.821,179.247 168.500 C 179.408 168.179,179.655 167.785,179.796 167.625 C 179.937 167.465,179.996 167.333,179.928 167.333 C 179.859 167.333,179.985 167.118,180.206 166.855 C 180.427 166.593,180.705 166.143,180.824 165.855 C 180.943 165.568,181.111 165.333,181.197 165.333 C 181.283 165.333,181.310 165.264,181.258 165.180 C 181.206 165.096,181.267 164.923,181.394 164.797 C 181.520 164.670,181.755 164.308,181.915 163.992 C 182.076 163.675,182.322 163.285,182.463 163.125 C 182.603 162.965,182.658 162.833,182.583 162.833 C 182.509 162.833,182.565 162.702,182.707 162.542 C 182.935 162.285,183.199 161.853,183.904 160.583 C 184.006 160.400,184.219 160.044,184.378 159.792 C 185.128 158.602,185.239 158.401,185.274 158.183 C 185.294 158.055,185.381 157.905,185.466 157.850 C 185.551 157.795,185.752 157.487,185.914 157.167 C 186.075 156.846,186.322 156.452,186.463 156.292 C 186.603 156.131,186.663 156.000,186.594 156.000 C 186.526 156.000,186.651 155.785,186.872 155.522 C 187.094 155.259,187.372 154.809,187.491 154.522 C 187.610 154.235,187.777 154.000,187.863 154.000 C 187.949 154.000,187.977 153.931,187.925 153.847 C 187.873 153.762,187.934 153.590,188.060 153.464 C 188.187 153.337,188.421 152.975,188.582 152.659 C 188.742 152.342,188.989 151.952,189.129 151.792 C 189.270 151.631,189.324 151.500,189.250 151.500 C 189.176 151.500,189.232 151.369,189.374 151.208 C 189.517 151.048,189.837 150.542,190.085 150.083 C 190.333 149.625,190.704 148.987,190.908 148.667 C 191.749 147.347,191.905 147.073,191.941 146.850 C 191.961 146.722,192.047 146.572,192.132 146.517 C 192.217 146.462,192.419 146.154,192.580 145.833 C 192.742 145.512,192.989 145.119,193.129 144.958 C 193.270 144.798,193.329 144.667,193.261 144.667 C 193.193 144.667,193.318 144.452,193.539 144.189 C 193.760 143.926,194.039 143.476,194.157 143.189 C 194.276 142.902,194.427 142.667,194.492 142.667 C 194.558 142.667,194.612 142.573,194.613 142.458 C 194.614 142.344,194.841 141.875,195.118 141.417 C 195.395 140.958,196.160 139.670,196.820 138.553 L 198.018 136.523 195.281 131.803 C 193.775 129.207,191.483 125.265,190.187 123.042 C 188.891 120.820,186.794 117.220,185.528 115.042 C 179.662 104.958,180.136 105.714,179.880 106.035 " stroke="none" fill="#84ccfb" fill-rule="evenodd"></path><path id="path1" d="M26.793 302.250 L 26.750 317.833 41.024 317.833 L 55.299 317.833 56.632 315.542 C 57.366 314.281,58.673 312.050,59.538 310.583 C 60.403 309.117,63.007 304.692,65.326 300.750 C 67.644 296.808,70.432 292.074,71.521 290.229 C 72.609 288.383,73.500 286.827,73.500 286.770 C 73.500 286.713,63.001 286.667,50.168 286.667 L 26.837 286.667 26.793 302.250 M109.371 287.208 C 108.430 288.787,93.741 313.752,92.554 315.792 C 92.060 316.641,91.613 317.447,91.560 317.584 C 91.475 317.805,103.439 317.833,197.482 317.833 C 266.263 317.833,303.500 317.776,303.500 317.671 C 303.500 317.581,301.563 314.188,299.196 310.129 C 289.241 293.060,285.828 287.180,285.732 286.931 C 285.640 286.690,277.765 286.667,197.662 286.667 L 109.694 286.667 109.371 287.208 M321.500 286.731 C 321.500 286.766,322.762 288.960,324.304 291.606 C 325.846 294.252,329.834 301.104,333.165 306.833 C 336.496 312.563,339.334 317.381,339.470 317.542 C 339.703 317.816,340.724 317.833,356.526 317.833 L 373.333 317.833 373.333 302.250 L 373.333 286.667 347.417 286.667 C 333.162 286.667,321.500 286.695,321.500 286.731 " stroke="none" fill="#fbe474" fill-rule="evenodd"></path><path id="path2" d="M196.829 138.537 C 196.165 139.663,195.406 140.941,195.143 141.379 L 194.665 142.174 194.666 206.702 L 194.668 271.230 194.334 270.872 C 194.150 270.675,194.000 270.470,194.000 270.417 C 194.000 270.363,193.719 269.926,193.375 269.445 C 193.031 268.965,192.675 268.454,192.583 268.311 C 192.492 268.167,192.193 267.720,191.920 267.317 C 191.647 266.913,191.347 266.463,191.253 266.316 C 190.886 265.737,189.746 264.079,189.662 264.000 C 189.613 263.954,189.315 263.504,189.000 263.000 C 188.685 262.496,188.387 262.046,188.338 262.000 C 188.254 261.921,187.114 260.263,186.747 259.684 C 186.653 259.537,186.353 259.087,186.080 258.685 C 185.807 258.282,185.508 257.828,185.417 257.676 C 184.137 255.557,182.209 254.817,180.315 255.718 C 178.400 256.629,177.729 259.430,179.031 261.084 C 179.197 261.296,179.333 261.547,179.333 261.643 C 179.333 261.739,179.430 261.877,179.547 261.950 C 179.665 262.023,180.019 262.496,180.334 263.000 C 180.648 263.504,180.948 263.954,181.000 264.000 C 181.052 264.046,181.352 264.496,181.667 265.000 C 181.981 265.504,182.279 265.954,182.328 266.000 C 182.413 266.079,183.552 267.737,183.920 268.316 C 184.014 268.463,184.314 268.913,184.587 269.315 C 184.860 269.718,185.160 270.168,185.253 270.315 C 185.347 270.463,185.647 270.913,185.920 271.317 C 186.193 271.720,186.492 272.170,186.583 272.317 C 186.675 272.463,186.791 272.621,186.842 272.667 C 187.043 272.849,188.000 274.359,188.000 274.494 C 188.000 274.574,188.059 274.664,188.132 274.694 C 188.312 274.771,189.333 276.312,189.333 276.508 C 189.333 276.595,189.391 276.667,189.461 276.667 C 189.531 276.667,189.773 276.967,190.000 277.333 C 190.227 277.700,190.469 278.000,190.539 278.000 C 190.609 278.000,190.667 278.071,190.667 278.158 C 190.667 278.355,191.688 279.896,191.868 279.972 C 191.941 280.003,192.000 280.093,192.000 280.172 C 192.000 280.307,192.957 281.818,193.158 282.000 C 193.209 282.046,193.325 282.207,193.417 282.358 C 193.508 282.509,193.827 282.982,194.125 283.408 C 194.423 283.834,194.667 284.236,194.667 284.300 C 194.667 284.486,196.123 286.000,196.301 286.000 C 196.390 286.000,196.677 286.112,196.939 286.249 C 198.222 286.918,200.025 286.260,201.223 284.685 C 201.650 284.123,202.000 283.630,202.000 283.590 C 202.000 283.550,202.244 283.168,202.542 282.741 C 202.840 282.315,203.158 281.842,203.250 281.691 C 203.342 281.540,203.458 281.379,203.509 281.333 C 203.710 281.151,204.667 279.641,204.667 279.506 C 204.667 279.426,204.726 279.336,204.798 279.306 C 204.871 279.275,205.171 278.894,205.465 278.458 C 205.759 278.023,206.241 277.310,206.535 276.875 C 206.829 276.440,207.129 276.058,207.202 276.028 C 207.274 275.997,207.333 275.907,207.333 275.828 C 207.333 275.748,207.577 275.334,207.875 274.907 C 208.173 274.480,208.529 273.963,208.667 273.759 C 208.804 273.554,209.140 273.056,209.413 272.652 C 209.686 272.247,209.986 271.796,210.080 271.649 C 210.448 271.070,211.587 269.412,211.672 269.333 C 211.721 269.287,212.018 268.837,212.333 268.333 C 212.648 267.829,213.002 267.357,213.119 267.283 C 213.237 267.210,213.333 267.083,213.333 267.000 C 213.333 266.918,213.577 266.502,213.875 266.077 C 214.173 265.652,214.493 265.179,214.587 265.027 C 214.680 264.875,214.980 264.420,215.253 264.017 C 215.527 263.613,215.825 263.163,215.917 263.017 C 216.008 262.870,216.128 262.712,216.183 262.667 C 216.367 262.514,217.244 261.093,217.623 260.333 C 219.011 257.551,215.996 254.377,213.110 255.583 C 212.381 255.888,211.333 256.782,211.333 257.101 C 211.333 257.229,211.272 257.333,211.197 257.333 C 211.123 257.333,210.893 257.633,210.687 258.000 C 210.481 258.367,210.242 258.667,210.156 258.667 C 210.070 258.667,210.000 258.738,210.000 258.825 C 210.000 259.021,208.979 260.563,208.798 260.639 C 208.726 260.669,208.667 260.759,208.667 260.839 C 208.667 260.974,207.710 262.484,207.509 262.667 C 207.458 262.712,207.342 262.870,207.250 263.017 C 207.158 263.163,206.860 263.613,206.587 264.017 C 206.314 264.420,206.014 264.871,205.920 265.018 C 205.827 265.165,205.527 265.615,205.253 266.018 C 204.980 266.421,204.680 266.870,204.587 267.018 C 204.219 267.597,203.079 269.255,202.995 269.333 C 202.946 269.379,202.646 269.827,202.328 270.330 L 201.750 271.242 201.667 206.913 L 201.583 142.583 199.810 139.537 L 198.037 136.491 196.829 138.537 M26.747 302.167 C 26.747 310.737,26.767 314.244,26.792 309.958 C 26.816 305.673,26.816 298.660,26.792 294.375 C 26.767 290.090,26.747 293.596,26.747 302.167 " stroke="none" fill="#cdcdcc" fill-rule="evenodd"></path><path id="path3" d="M177.333 40.383 C 177.012 40.578,176.650 40.835,176.528 40.954 C 176.406 41.073,176.245 41.132,176.171 41.086 C 176.096 41.040,175.989 41.122,175.933 41.268 C 175.874 41.420,175.724 41.494,175.582 41.439 C 175.445 41.387,175.333 41.404,175.333 41.477 C 175.333 41.550,175.127 41.713,174.875 41.838 C 174.623 41.964,174.182 42.236,173.896 42.443 C 173.609 42.650,173.328 42.772,173.271 42.715 C 173.213 42.658,173.167 42.711,173.167 42.833 C 173.167 42.956,173.121 43.010,173.066 42.954 C 173.010 42.899,172.879 42.927,172.774 43.016 C 172.474 43.272,170.990 44.194,170.167 44.637 C 169.754 44.859,169.304 45.138,169.167 45.257 C 169.029 45.376,168.806 45.498,168.671 45.529 C 168.535 45.559,168.324 45.677,168.200 45.792 C 168.077 45.906,167.840 46.000,167.673 46.000 C 167.506 46.000,167.326 46.112,167.273 46.250 C 167.220 46.387,167.062 46.500,166.922 46.500 C 166.782 46.500,166.667 46.579,166.667 46.677 C 166.667 46.774,166.592 46.807,166.500 46.750 C 166.408 46.693,166.333 46.739,166.333 46.851 C 166.333 46.964,166.289 47.012,166.236 46.958 C 166.182 46.905,165.992 46.986,165.814 47.139 C 165.635 47.292,165.435 47.422,165.370 47.428 C 165.136 47.449,164.169 48.085,164.168 48.218 C 164.167 48.292,164.092 48.307,164.000 48.250 C 163.908 48.193,163.833 48.231,163.833 48.333 C 163.833 48.436,163.758 48.473,163.667 48.417 C 163.575 48.360,163.500 48.381,163.500 48.464 C 163.500 48.547,163.144 48.790,162.708 49.006 C 162.273 49.221,161.682 49.567,161.396 49.775 C 161.109 49.982,160.828 50.105,160.771 50.048 C 160.713 49.991,160.667 50.036,160.667 50.149 C 160.667 50.261,160.602 50.313,160.522 50.264 C 160.443 50.215,160.241 50.325,160.074 50.510 C 159.908 50.694,159.679 50.810,159.566 50.766 C 159.453 50.723,159.320 50.795,159.269 50.927 C 159.218 51.059,159.062 51.167,158.922 51.167 C 158.782 51.167,158.667 51.254,158.667 51.361 C 158.667 51.468,158.617 51.506,158.556 51.445 C 158.496 51.385,158.196 51.526,157.890 51.759 C 157.584 51.993,157.333 52.139,157.333 52.085 C 157.333 52.031,157.240 52.068,157.125 52.167 C 156.803 52.444,155.208 53.400,153.917 54.090 C 153.275 54.433,152.712 54.761,152.667 54.819 C 152.484 55.050,151.650 55.509,151.537 55.441 C 151.183 55.227,151.027 55.822,151.334 56.214 C 151.511 56.438,151.608 56.670,151.550 56.728 C 151.492 56.786,151.527 56.833,151.628 56.833 C 151.795 56.833,151.998 57.228,151.995 57.545 C 151.994 57.615,152.145 57.836,152.330 58.035 C 152.515 58.234,152.667 58.469,152.667 58.557 C 152.667 58.646,152.859 58.971,153.094 59.279 C 153.329 59.587,153.669 60.156,153.849 60.544 C 154.219 61.340,154.530 61.876,154.695 62.002 C 154.756 62.048,154.831 62.193,154.862 62.323 C 154.892 62.453,155.011 62.678,155.126 62.822 C 155.242 62.966,155.344 63.158,155.354 63.250 C 155.363 63.342,155.594 63.698,155.866 64.042 C 156.139 64.385,156.299 64.668,156.222 64.669 C 156.146 64.671,156.168 64.727,156.272 64.794 C 156.376 64.862,156.733 65.431,157.066 66.060 C 157.399 66.689,157.820 67.392,158.000 67.621 C 158.181 67.851,158.288 68.105,158.238 68.186 C 158.188 68.267,158.215 68.333,158.297 68.333 C 158.380 68.333,158.628 68.690,158.849 69.125 C 159.069 69.560,159.307 69.942,159.376 69.973 C 159.445 70.003,159.460 70.097,159.408 70.181 C 159.356 70.265,159.395 70.333,159.494 70.333 C 159.639 70.333,159.929 70.829,160.080 71.333 C 160.165 71.618,160.773 72.498,160.885 72.499 C 160.959 72.500,160.977 72.569,160.925 72.653 C 160.873 72.738,160.940 72.916,161.073 73.049 C 161.304 73.280,161.584 73.748,162.392 75.250 C 162.589 75.617,162.789 75.954,162.837 76.000 C 163.066 76.219,163.517 77.038,163.447 77.108 C 163.404 77.152,163.549 77.382,163.769 77.620 C 163.990 77.858,164.132 78.090,164.086 78.136 C 164.039 78.183,164.185 78.462,164.410 78.756 C 164.635 79.051,164.772 79.339,164.715 79.396 C 164.658 79.453,164.703 79.500,164.815 79.500 C 164.928 79.500,164.977 79.569,164.925 79.652 C 164.874 79.736,164.891 79.830,164.963 79.861 C 165.121 79.927,166.276 81.797,167.058 83.250 C 167.255 83.617,167.463 83.954,167.519 84.000 C 167.575 84.046,167.937 84.683,168.324 85.417 C 168.711 86.150,169.134 86.869,169.264 87.014 C 169.394 87.158,169.451 87.327,169.389 87.389 C 169.328 87.450,169.370 87.500,169.482 87.500 C 169.594 87.500,169.640 87.575,169.583 87.667 C 169.527 87.758,169.547 87.833,169.629 87.833 C 169.710 87.833,169.880 88.040,170.005 88.292 C 170.130 88.544,170.402 88.984,170.609 89.271 C 170.816 89.558,170.939 89.839,170.882 89.896 C 170.825 89.953,170.860 90.000,170.961 90.000 C 171.124 90.000,171.262 90.256,171.364 90.750 C 171.383 90.842,171.533 91.062,171.699 91.240 C 171.865 91.417,172.000 91.661,172.000 91.781 C 172.000 91.902,172.075 92.000,172.167 92.000 C 172.258 92.000,172.333 92.150,172.333 92.333 C 172.333 92.517,172.397 92.667,172.474 92.667 C 172.551 92.667,172.790 93.023,173.006 93.458 C 173.221 93.894,173.567 94.484,173.775 94.771 C 173.982 95.058,174.105 95.339,174.048 95.396 C 173.991 95.453,174.036 95.500,174.149 95.500 C 174.261 95.500,174.307 95.575,174.250 95.667 C 174.193 95.758,174.213 95.833,174.293 95.833 C 174.373 95.833,174.589 96.115,174.773 96.458 C 175.321 97.479,175.571 97.891,175.792 98.130 C 175.982 98.338,176.061 98.580,176.026 98.855 C 176.019 98.913,176.160 99.093,176.340 99.256 C 176.520 99.419,176.667 99.653,176.667 99.776 C 176.667 99.899,176.742 100.000,176.833 100.000 C 176.925 100.000,177.000 100.150,177.000 100.333 C 177.000 100.517,177.063 100.667,177.140 100.667 C 177.218 100.667,177.457 101.023,177.672 101.458 C 177.888 101.894,178.234 102.484,178.441 102.771 C 178.649 103.058,178.772 103.339,178.715 103.396 C 178.658 103.453,178.682 103.500,178.768 103.500 C 178.854 103.500,179.069 103.781,179.247 104.125 C 179.424 104.469,179.705 104.950,179.870 105.195 C 180.036 105.440,181.207 107.428,182.474 109.612 C 183.740 111.796,186.001 115.683,187.498 118.250 C 197.438 135.298,201.445 142.209,202.141 143.500 C 202.462 144.096,202.769 144.621,202.824 144.667 C 203.043 144.848,203.522 145.700,203.447 145.775 C 203.404 145.818,203.547 146.046,203.764 146.281 C 203.982 146.516,204.123 146.770,204.077 146.844 C 204.031 146.919,204.126 147.057,204.288 147.151 C 204.451 147.246,204.515 147.325,204.433 147.328 C 204.350 147.331,204.417 147.483,204.583 147.667 C 204.749 147.850,204.833 148.000,204.769 148.000 C 204.706 148.000,204.734 148.094,204.833 148.208 C 205.111 148.530,206.067 150.125,206.757 151.417 C 207.100 152.058,207.428 152.621,207.486 152.667 C 207.757 152.881,208.170 153.694,208.080 153.838 C 208.025 153.927,208.047 154.000,208.129 154.000 C 208.210 154.000,208.380 154.206,208.505 154.458 C 208.630 154.710,208.902 155.151,209.109 155.438 C 209.316 155.724,209.439 156.006,209.382 156.063 C 209.325 156.120,209.370 156.167,209.482 156.167 C 209.594 156.167,209.640 156.242,209.583 156.333 C 209.527 156.425,209.547 156.500,209.629 156.500 C 209.710 156.500,209.880 156.706,210.005 156.958 C 210.130 157.210,210.402 157.651,210.609 157.938 C 210.816 158.224,210.939 158.506,210.882 158.563 C 210.825 158.620,210.860 158.667,210.961 158.667 C 211.132 158.667,211.432 159.288,211.373 159.522 C 211.358 159.580,211.494 159.760,211.673 159.923 C 211.853 160.085,212.000 160.319,212.000 160.442 C 212.000 160.566,212.075 160.667,212.167 160.667 C 212.258 160.667,212.333 160.817,212.333 161.000 C 212.333 161.183,212.397 161.333,212.474 161.333 C 212.551 161.333,212.790 161.690,213.006 162.125 C 213.221 162.560,213.574 163.160,213.790 163.458 C 214.007 163.756,214.124 164.001,214.050 164.003 C 213.977 164.004,213.999 164.060,214.100 164.128 C 214.271 164.242,214.992 165.439,215.403 166.290 C 215.502 166.496,215.644 166.665,215.718 166.665 C 215.792 166.666,215.807 166.742,215.750 166.833 C 215.693 166.925,215.715 167.000,215.797 167.000 C 215.880 167.000,216.127 167.356,216.347 167.792 C 216.566 168.227,216.822 168.638,216.914 168.706 C 217.007 168.773,217.023 168.829,216.950 168.831 C 216.876 168.832,217.017 169.096,217.261 169.417 C 217.506 169.738,217.648 170.000,217.577 170.000 C 217.506 170.000,217.567 170.131,217.711 170.292 C 217.856 170.452,217.998 170.694,218.029 170.829 C 218.081 171.065,218.154 171.175,218.632 171.744 C 218.750 171.885,218.787 172.001,218.715 172.003 C 218.643 172.004,218.668 172.060,218.771 172.128 C 218.874 172.195,219.280 172.850,219.673 173.583 C 220.067 174.317,220.526 175.094,220.692 175.311 C 220.859 175.528,220.955 175.772,220.905 175.853 C 220.855 175.934,220.895 176.000,220.994 176.000 C 221.094 176.000,221.248 176.193,221.338 176.428 C 221.427 176.663,221.697 177.113,221.937 177.428 C 222.177 177.743,222.315 178.000,222.244 178.000 C 222.173 178.000,222.233 178.131,222.378 178.292 C 222.522 178.452,222.665 178.691,222.695 178.822 C 222.725 178.953,222.878 179.215,223.035 179.405 C 223.193 179.595,223.317 179.817,223.313 179.898 C 223.308 179.979,223.368 180.092,223.444 180.148 C 223.639 180.291,223.940 180.780,224.428 181.750 C 224.925 182.737,225.209 183.219,225.362 183.335 C 225.423 183.382,225.498 183.526,225.528 183.656 C 225.559 183.787,225.678 184.011,225.793 184.155 C 225.908 184.299,226.011 184.492,226.020 184.583 C 226.030 184.675,226.252 185.021,226.515 185.352 C 226.777 185.683,226.943 186.001,226.884 186.060 C 226.826 186.119,226.860 186.167,226.961 186.167 C 227.125 186.167,227.476 186.911,227.316 186.921 C 227.280 186.923,227.419 187.106,227.625 187.327 C 227.831 187.548,228.000 187.802,228.000 187.891 C 228.000 187.979,228.176 188.284,228.391 188.568 C 228.606 188.851,229.038 189.571,229.349 190.167 C 229.661 190.762,229.973 191.275,230.043 191.306 C 230.112 191.337,230.126 191.430,230.075 191.514 C 230.023 191.598,230.062 191.667,230.161 191.667 C 230.326 191.667,230.657 192.293,230.605 192.507 C 230.593 192.556,230.825 192.902,231.121 193.275 C 231.416 193.648,231.610 194.001,231.551 194.060 C 231.492 194.119,231.536 194.167,231.649 194.167 C 231.761 194.167,231.807 194.242,231.750 194.333 C 231.693 194.425,231.715 194.500,231.797 194.500 C 231.880 194.500,232.124 194.856,232.339 195.292 C 232.554 195.727,232.911 196.332,233.131 196.635 C 233.352 196.939,233.548 197.291,233.567 197.419 C 233.585 197.546,233.735 197.800,233.900 197.982 C 234.065 198.163,234.155 198.384,234.101 198.472 C 234.046 198.560,234.114 198.675,234.251 198.727 C 234.388 198.780,234.500 198.938,234.500 199.078 C 234.500 199.218,234.579 199.333,234.677 199.333 C 234.774 199.333,234.807 199.408,234.750 199.500 C 234.693 199.592,234.728 199.667,234.828 199.667 C 235.005 199.667,235.413 200.464,235.360 200.708 C 235.345 200.777,235.403 200.833,235.489 200.833 C 235.574 200.833,235.691 200.981,235.749 201.162 C 235.806 201.343,236.095 201.849,236.390 202.287 C 236.686 202.725,237.181 203.571,237.491 204.167 C 237.802 204.762,238.112 205.288,238.182 205.335 C 238.251 205.382,238.620 206.020,239.000 206.752 C 239.381 207.484,239.799 208.202,239.930 208.347 C 240.061 208.492,240.117 208.661,240.056 208.722 C 239.995 208.783,240.036 208.833,240.149 208.833 C 240.261 208.833,240.307 208.908,240.250 209.000 C 240.193 209.092,240.214 209.167,240.295 209.167 C 240.377 209.167,240.546 209.373,240.672 209.625 C 240.797 209.877,241.069 210.318,241.276 210.604 C 241.483 210.891,241.605 211.172,241.548 211.229 C 241.491 211.287,241.527 211.333,241.628 211.333 C 241.782 211.333,242.107 211.990,242.021 212.128 C 242.006 212.153,242.145 212.336,242.330 212.535 C 242.515 212.734,242.667 212.995,242.667 213.115 C 242.667 213.235,242.742 213.333,242.833 213.333 C 242.925 213.333,243.000 213.483,243.000 213.667 C 243.000 213.850,243.063 214.000,243.140 214.000 C 243.218 214.000,243.457 214.356,243.672 214.792 C 243.888 215.227,244.234 215.818,244.441 216.104 C 244.649 216.391,244.772 216.672,244.715 216.729 C 244.658 216.787,244.703 216.833,244.815 216.833 C 244.928 216.833,244.973 216.908,244.917 217.000 C 244.860 217.092,244.879 217.167,244.959 217.167 C 245.039 217.167,245.256 217.448,245.440 217.792 C 245.988 218.813,246.238 219.224,246.458 219.464 C 246.649 219.671,246.727 219.914,246.693 220.188 C 246.686 220.246,246.827 220.427,247.007 220.589 C 247.186 220.752,247.333 220.986,247.333 221.109 C 247.333 221.232,247.408 221.333,247.500 221.333 C 247.592 221.333,247.667 221.483,247.667 221.667 C 247.667 221.850,247.727 222.000,247.801 222.000 C 247.876 222.000,248.185 222.469,248.489 223.042 C 248.793 223.615,249.157 224.215,249.297 224.375 C 249.437 224.535,249.484 224.668,249.401 224.669 C 249.318 224.671,249.332 224.727,249.433 224.794 C 249.604 224.908,250.325 226.106,250.736 226.957 C 250.835 227.163,250.977 227.331,251.052 227.332 C 251.126 227.333,251.140 227.408,251.083 227.500 C 251.027 227.592,251.048 227.667,251.131 227.667 C 251.213 227.667,251.461 228.023,251.682 228.458 C 251.903 228.894,252.140 229.275,252.208 229.306 C 252.277 229.336,252.333 229.437,252.333 229.530 C 252.333 229.623,252.488 229.916,252.678 230.183 C 252.868 230.449,252.968 230.667,252.902 230.667 C 252.836 230.667,252.900 230.798,253.044 230.958 C 253.189 231.119,253.332 231.361,253.362 231.496 C 253.414 231.732,253.487 231.842,253.965 232.411 C 254.083 232.552,254.121 232.668,254.048 232.669 C 253.976 232.671,254.001 232.727,254.104 232.794 C 254.207 232.862,254.613 233.517,255.007 234.250 C 255.400 234.983,255.859 235.761,256.026 235.978 C 256.192 236.195,256.288 236.439,256.238 236.520 C 256.188 236.600,256.228 236.667,256.328 236.667 C 256.427 236.667,256.581 236.859,256.671 237.095 C 256.761 237.330,257.030 237.780,257.270 238.095 C 257.510 238.409,257.648 238.667,257.577 238.667 C 257.506 238.667,257.567 238.798,257.711 238.958 C 257.856 239.119,257.998 239.357,258.029 239.488 C 258.059 239.619,258.222 239.894,258.392 240.098 C 258.562 240.303,258.687 240.525,258.670 240.591 C 258.652 240.658,258.701 240.759,258.777 240.815 C 258.973 240.958,259.273 241.447,259.761 242.417 C 260.259 243.404,260.542 243.885,260.695 244.002 C 260.756 244.048,260.831 244.193,260.862 244.323 C 260.892 244.453,261.011 244.678,261.126 244.822 C 261.242 244.966,261.344 245.158,261.354 245.250 C 261.363 245.342,261.586 245.687,261.848 246.018 C 262.110 246.349,262.276 246.668,262.218 246.727 C 262.159 246.785,262.194 246.833,262.294 246.833 C 262.449 246.833,262.774 247.490,262.688 247.628 C 262.672 247.653,262.811 247.836,262.997 248.035 C 263.182 248.234,263.333 248.469,263.333 248.557 C 263.333 248.646,263.509 248.951,263.724 249.234 C 263.940 249.518,264.371 250.237,264.683 250.833 C 264.995 251.429,265.307 251.942,265.376 251.973 C 265.445 252.003,265.460 252.097,265.408 252.181 C 265.356 252.265,265.395 252.333,265.494 252.333 C 265.639 252.333,265.929 252.829,266.080 253.333 C 266.165 253.618,266.773 254.498,266.885 254.499 C 266.959 254.500,266.977 254.569,266.925 254.653 C 266.873 254.738,266.946 254.922,267.087 255.064 C 267.229 255.205,267.554 255.717,267.810 256.202 C 268.409 257.337,268.728 257.896,268.837 258.000 C 269.066 258.219,269.517 259.038,269.447 259.108 C 269.404 259.152,269.547 259.380,269.764 259.615 C 269.982 259.850,270.120 260.108,270.070 260.189 C 270.020 260.270,270.096 260.381,270.238 260.435 C 270.381 260.490,270.462 260.594,270.418 260.665 C 270.373 260.737,270.448 260.888,270.583 261.000 C 270.719 261.112,270.789 261.271,270.738 261.352 C 270.688 261.433,270.717 261.500,270.803 261.500 C 270.889 261.500,271.053 261.725,271.167 262.000 C 271.281 262.275,271.444 262.500,271.530 262.500 C 271.616 262.500,271.644 262.569,271.592 262.653 C 271.540 262.738,271.606 262.916,271.740 263.049 C 271.971 263.280,272.251 263.748,273.058 265.250 C 273.255 265.617,273.456 265.954,273.504 266.000 C 273.733 266.219,274.184 267.038,274.114 267.108 C 274.071 267.152,274.213 267.380,274.431 267.615 C 274.649 267.850,274.786 268.108,274.736 268.189 C 274.686 268.270,274.762 268.381,274.905 268.435 C 275.048 268.490,275.129 268.594,275.084 268.665 C 275.040 268.737,275.115 268.888,275.250 269.000 C 275.385 269.112,275.455 269.271,275.405 269.352 C 275.355 269.433,275.406 269.500,275.518 269.500 C 275.630 269.500,275.677 269.545,275.621 269.601 C 275.566 269.657,275.590 269.788,275.677 269.893 C 276.035 270.329,276.955 271.824,277.486 272.834 C 277.799 273.430,278.101 273.954,278.157 274.000 C 278.430 274.226,278.835 275.029,278.747 275.171 C 278.692 275.260,278.714 275.333,278.795 275.333 C 278.877 275.333,279.046 275.540,279.172 275.792 C 279.297 276.044,279.569 276.484,279.776 276.771 C 279.983 277.058,280.105 277.339,280.048 277.396 C 279.991 277.453,280.036 277.500,280.149 277.500 C 280.261 277.500,280.307 277.575,280.250 277.667 C 280.193 277.758,280.214 277.833,280.295 277.833 C 280.377 277.833,280.546 278.040,280.672 278.292 C 280.797 278.544,281.069 278.984,281.276 279.271 C 281.483 279.558,281.605 279.839,281.548 279.896 C 281.491 279.953,281.527 280.000,281.628 280.000 C 281.782 280.000,282.107 280.657,282.021 280.795 C 282.006 280.820,282.145 281.002,282.330 281.201 C 282.515 281.400,282.667 281.661,282.667 281.781 C 282.667 281.902,282.742 282.000,282.833 282.000 C 282.925 282.000,283.000 282.150,283.000 282.333 C 283.000 282.517,283.063 282.667,283.140 282.667 C 283.218 282.667,283.457 283.023,283.672 283.458 C 283.888 283.894,284.234 284.484,284.441 284.771 C 284.649 285.058,284.772 285.339,284.715 285.396 C 284.658 285.453,284.703 285.500,284.815 285.500 C 284.928 285.500,284.973 285.575,284.917 285.667 C 284.860 285.758,284.881 285.833,284.964 285.833 C 285.046 285.833,285.327 286.227,285.587 286.708 C 285.848 287.190,287.459 289.983,289.168 292.917 C 290.877 295.850,294.851 302.675,297.999 308.083 C 301.147 313.492,303.859 318.094,304.026 318.311 C 304.192 318.528,304.288 318.772,304.238 318.853 C 304.188 318.934,304.215 319.000,304.297 319.000 C 304.380 319.000,304.627 319.356,304.847 319.792 C 305.066 320.227,305.292 320.621,305.349 320.667 C 305.494 320.783,306.017 321.819,305.962 321.880 C 305.937 321.908,306.158 322.235,306.454 322.608 C 306.749 322.981,306.943 323.335,306.884 323.393 C 306.826 323.452,306.870 323.500,306.982 323.500 C 307.094 323.500,307.140 323.575,307.083 323.667 C 307.027 323.758,307.048 323.833,307.131 323.833 C 307.213 323.833,307.457 324.190,307.672 324.625 C 307.888 325.060,308.244 325.665,308.465 325.969 C 308.685 326.272,308.881 326.625,308.900 326.752 C 308.919 326.880,309.069 327.133,309.233 327.315 C 309.398 327.497,309.488 327.718,309.434 327.805 C 309.380 327.893,309.447 328.008,309.584 328.061 C 309.721 328.113,309.833 328.271,309.833 328.411 C 309.833 328.552,309.913 328.667,310.010 328.667 C 310.107 328.667,310.140 328.742,310.083 328.833 C 310.027 328.925,310.062 329.000,310.161 329.000 C 310.339 329.000,310.746 329.797,310.694 330.042 C 310.679 330.110,310.737 330.167,310.822 330.167 C 310.908 330.167,311.025 330.315,311.082 330.496 C 311.139 330.676,311.428 331.183,311.723 331.621 C 312.019 332.058,312.515 332.904,312.825 333.500 C 313.135 334.096,313.434 334.621,313.490 334.667 C 313.764 334.892,314.169 335.695,314.080 335.838 C 314.025 335.927,314.047 336.000,314.129 336.000 C 314.210 336.000,314.380 336.206,314.505 336.458 C 314.630 336.710,314.902 337.151,315.109 337.438 C 315.316 337.724,315.439 338.006,315.382 338.063 C 315.325 338.120,315.370 338.167,315.482 338.167 C 315.594 338.167,315.640 338.242,315.583 338.333 C 315.527 338.425,315.547 338.500,315.629 338.500 C 315.710 338.500,315.880 338.706,316.005 338.958 C 316.130 339.210,316.409 339.660,316.625 339.958 C 316.841 340.256,316.964 340.500,316.899 340.500 C 316.835 340.500,316.900 340.631,317.044 340.792 C 317.189 340.952,317.332 341.193,317.362 341.327 C 317.392 341.461,317.548 341.719,317.708 341.900 C 317.869 342.081,318.000 342.328,318.000 342.448 C 318.000 342.568,318.075 342.667,318.167 342.667 C 318.258 342.667,318.333 342.817,318.333 343.000 C 318.333 343.183,318.397 343.333,318.474 343.333 C 318.551 343.333,318.790 343.690,319.006 344.125 C 319.221 344.560,319.567 345.151,319.775 345.438 C 319.982 345.724,320.105 346.006,320.048 346.063 C 319.991 346.120,320.036 346.167,320.149 346.167 C 320.261 346.167,320.307 346.242,320.250 346.333 C 320.193 346.425,320.213 346.500,320.293 346.500 C 320.373 346.500,320.589 346.781,320.773 347.125 C 321.320 348.145,321.577 348.578,321.687 348.667 C 321.744 348.712,322.007 349.162,322.270 349.667 C 322.534 350.171,322.806 350.608,322.875 350.639 C 322.944 350.669,323.000 350.770,323.000 350.863 C 323.000 350.956,323.155 351.250,323.345 351.516 C 323.534 351.782,323.635 352.000,323.569 352.000 C 323.503 352.000,323.567 352.131,323.711 352.292 C 323.856 352.452,323.998 352.694,324.029 352.829 C 324.081 353.065,324.154 353.175,324.632 353.744 C 324.750 353.885,324.787 354.001,324.715 354.003 C 324.643 354.004,324.660 354.060,324.754 354.128 C 324.848 354.195,325.053 354.453,325.211 354.701 C 325.492 355.143,326.495 354.946,326.499 354.448 C 326.500 354.374,326.565 354.354,326.645 354.403 C 326.725 354.453,326.958 354.348,327.162 354.171 C 327.367 353.993,328.014 353.607,328.600 353.312 C 329.187 353.018,329.667 352.710,329.667 352.628 C 329.667 352.547,329.742 352.527,329.833 352.583 C 329.925 352.640,330.000 352.602,330.000 352.500 C 330.000 352.398,330.065 352.354,330.144 352.403 C 330.224 352.452,330.425 352.341,330.592 352.157 C 330.759 351.972,330.988 351.857,331.101 351.900 C 331.213 351.944,331.347 351.871,331.398 351.739 C 331.448 351.608,331.604 351.500,331.745 351.500 C 331.885 351.500,332.000 351.413,332.000 351.306 C 332.000 351.199,332.050 351.161,332.110 351.221 C 332.171 351.282,332.471 351.141,332.777 350.907 C 333.083 350.674,333.333 350.527,333.333 350.581 C 333.333 350.636,333.427 350.599,333.542 350.500 C 333.864 350.222,335.458 349.266,336.750 348.576 C 337.392 348.234,337.957 347.892,338.006 347.816 C 338.055 347.741,338.355 347.563,338.673 347.421 C 339.325 347.128,339.876 346.804,340.002 346.638 C 340.048 346.577,340.193 346.502,340.323 346.472 C 340.453 346.441,340.699 346.304,340.869 346.167 C 341.038 346.029,341.197 345.954,341.220 346.000 C 341.244 346.046,341.569 345.842,341.942 345.546 C 342.315 345.251,342.668 345.057,342.727 345.116 C 342.785 345.174,342.833 345.122,342.833 345.000 C 342.833 344.878,342.880 344.824,342.937 344.881 C 342.993 344.938,343.149 344.875,343.283 344.741 C 343.417 344.607,343.596 344.540,343.680 344.592 C 343.764 344.644,343.833 344.620,343.833 344.538 C 343.833 344.456,344.040 344.287,344.292 344.162 C 344.544 344.036,344.985 343.764,345.272 343.557 C 345.559 343.349,345.894 343.158,346.015 343.132 C 346.137 343.105,346.387 342.950,346.571 342.788 C 346.755 342.625,346.995 342.526,347.105 342.569 C 347.216 342.611,347.347 342.538,347.398 342.406 C 347.448 342.274,347.604 342.167,347.745 342.167 C 347.885 342.167,348.000 342.087,348.000 341.990 C 348.000 341.893,348.075 341.860,348.167 341.917 C 348.258 341.973,348.333 341.938,348.333 341.839 C 348.333 341.694,348.829 341.404,349.333 341.253 C 349.618 341.168,350.498 340.560,350.499 340.448 C 350.500 340.374,350.565 340.354,350.645 340.403 C 350.725 340.452,351.006 340.307,351.270 340.080 C 351.534 339.853,351.844 339.667,351.958 339.667 C 352.227 339.667,351.708 338.322,351.315 338.000 C 351.171 337.882,350.651 336.847,350.705 336.787 C 350.730 336.759,350.500 336.421,350.194 336.035 C 349.889 335.649,349.701 335.332,349.778 335.331 C 349.854 335.329,349.832 335.273,349.728 335.206 C 349.624 335.138,349.262 334.558,348.923 333.917 C 348.584 333.275,348.194 332.625,348.057 332.473 C 347.920 332.321,347.791 332.080,347.770 331.939 C 347.750 331.798,347.598 331.534,347.433 331.352 C 347.269 331.170,347.178 330.949,347.233 330.861 C 347.287 330.773,347.219 330.659,347.082 330.606 C 346.945 330.553,346.833 330.396,346.833 330.255 C 346.833 330.115,346.754 330.000,346.657 330.000 C 346.560 330.000,346.527 329.925,346.583 329.833 C 346.640 329.742,346.605 329.667,346.506 329.667 C 346.361 329.667,346.071 329.171,345.920 328.667 C 345.835 328.382,345.227 327.502,345.115 327.501 C 345.041 327.500,345.023 327.431,345.075 327.347 C 345.127 327.262,345.060 327.084,344.927 326.951 C 344.696 326.720,344.416 326.252,343.608 324.750 C 343.411 324.383,343.211 324.046,343.163 324.000 C 342.934 323.781,342.483 322.962,342.553 322.892 C 342.596 322.848,342.453 322.620,342.236 322.385 C 342.018 322.150,341.880 321.892,341.930 321.811 C 341.980 321.730,341.904 321.619,341.762 321.565 C 341.619 321.510,341.538 321.406,341.582 321.335 C 341.627 321.263,341.552 321.112,341.417 321.000 C 341.281 320.888,341.211 320.729,341.262 320.648 C 341.312 320.567,341.261 320.500,341.149 320.500 C 341.036 320.500,340.990 320.455,341.046 320.399 C 341.101 320.343,341.076 320.212,340.990 320.107 C 340.731 319.792,339.667 318.139,339.667 318.052 C 339.667 318.008,337.540 314.321,334.940 309.861 C 323.090 289.528,321.333 286.501,321.333 286.419 C 321.333 286.370,321.110 286.022,320.836 285.644 C 320.563 285.267,320.380 284.893,320.430 284.813 C 320.479 284.732,320.441 284.667,320.344 284.667 C 320.247 284.667,320.012 284.333,319.820 283.925 C 319.628 283.517,319.366 283.096,319.237 282.990 C 319.109 282.883,319.045 282.729,319.095 282.648 C 319.145 282.567,319.112 282.500,319.021 282.500 C 318.860 282.500,318.631 282.004,318.710 281.829 C 318.732 281.781,318.581 281.561,318.375 281.340 C 318.169 281.118,318.000 280.839,318.000 280.719 C 318.000 280.598,317.943 280.500,317.873 280.500 C 317.735 280.500,317.653 280.366,316.951 278.994 C 316.417 277.949,316.127 277.452,315.982 277.333 C 315.859 277.233,315.333 276.221,315.311 276.043 C 315.302 275.974,315.073 275.635,314.800 275.292 C 314.528 274.948,314.368 274.666,314.444 274.664 C 314.521 274.663,314.498 274.606,314.395 274.539 C 314.291 274.472,313.933 273.902,313.600 273.273 C 313.267 272.644,312.847 271.942,312.666 271.712 C 312.486 271.482,312.379 271.228,312.429 271.147 C 312.479 271.066,312.452 271.000,312.369 271.000 C 312.287 271.000,312.039 270.644,311.818 270.208 C 311.597 269.773,311.360 269.392,311.291 269.361 C 311.221 269.330,311.207 269.236,311.259 269.152 C 311.311 269.069,311.272 269.000,311.172 269.000 C 311.027 269.000,310.737 268.505,310.586 268.000 C 310.501 267.716,309.894 266.835,309.782 266.834 C 309.708 266.834,309.687 266.768,309.737 266.688 C 309.786 266.608,309.674 266.367,309.487 266.152 C 309.300 265.937,309.027 265.496,308.880 265.172 C 308.733 264.848,308.430 264.335,308.207 264.031 C 307.983 263.728,307.786 263.375,307.767 263.248 C 307.748 263.120,307.598 262.867,307.433 262.685 C 307.269 262.503,307.178 262.282,307.233 262.195 C 307.287 262.107,307.219 261.992,307.082 261.939 C 306.945 261.887,306.833 261.729,306.833 261.589 C 306.833 261.448,306.754 261.333,306.657 261.333 C 306.560 261.333,306.527 261.258,306.583 261.167 C 306.640 261.075,306.605 261.000,306.506 261.000 C 306.360 261.000,306.015 260.404,305.926 260.000 C 305.889 259.828,305.251 258.912,305.087 258.794 C 304.993 258.727,304.982 258.671,305.061 258.669 C 305.141 258.668,305.006 258.404,304.761 258.083 C 304.517 257.762,304.355 257.500,304.403 257.500 C 304.451 257.500,304.309 257.234,304.089 256.909 C 303.868 256.584,303.590 256.096,303.470 255.826 C 303.350 255.555,303.195 255.333,303.126 255.333 C 303.057 255.333,303.000 255.183,303.000 255.000 C 303.000 254.817,302.937 254.667,302.860 254.667 C 302.782 254.667,302.543 254.310,302.328 253.875 C 302.112 253.440,301.766 252.849,301.559 252.562 C 301.351 252.276,301.228 251.994,301.285 251.937 C 301.342 251.880,301.297 251.833,301.185 251.833 C 301.072 251.833,301.027 251.758,301.083 251.667 C 301.140 251.575,301.121 251.500,301.041 251.500 C 300.961 251.500,300.744 251.219,300.560 250.875 C 300.012 249.854,299.762 249.443,299.542 249.203 C 299.351 248.996,299.273 248.753,299.307 248.478 C 299.314 248.420,299.173 248.240,298.993 248.077 C 298.814 247.915,298.667 247.681,298.667 247.558 C 298.667 247.434,298.592 247.333,298.500 247.333 C 298.408 247.333,298.333 247.183,298.333 247.000 C 298.333 246.817,298.270 246.667,298.193 246.667 C 298.116 246.667,297.876 246.310,297.661 245.875 C 297.446 245.440,297.100 244.849,296.892 244.562 C 296.684 244.276,296.561 243.994,296.618 243.937 C 296.675 243.880,296.630 243.833,296.518 243.833 C 296.406 243.833,296.360 243.758,296.417 243.667 C 296.473 243.575,296.454 243.500,296.374 243.500 C 296.294 243.500,296.078 243.219,295.893 242.875 C 295.363 241.886,295.091 241.423,294.987 241.333 C 294.934 241.287,294.672 240.838,294.405 240.333 C 294.138 239.829,293.881 239.379,293.835 239.333 C 293.736 239.236,293.469 238.770,292.782 237.500 C 292.510 236.996,292.173 236.452,292.034 236.292 C 291.895 236.131,291.850 235.999,291.933 235.997 C 292.015 235.996,292.001 235.940,291.900 235.872 C 291.800 235.805,291.527 235.407,291.294 234.987 C 290.498 233.548,290.416 233.416,290.250 233.294 C 290.158 233.227,290.143 233.171,290.215 233.169 C 290.287 233.168,290.192 233.001,290.002 232.798 C 289.813 232.594,289.695 232.332,289.741 232.214 C 289.786 232.096,289.748 232.000,289.657 232.000 C 289.566 232.000,289.419 231.807,289.329 231.572 C 289.239 231.337,288.970 230.887,288.730 230.572 C 288.490 230.257,288.352 230.000,288.423 230.000 C 288.494 230.000,288.433 229.869,288.289 229.708 C 288.144 229.548,288.002 229.306,287.971 229.171 C 287.919 228.935,287.846 228.825,287.368 228.256 C 287.250 228.115,287.213 227.999,287.285 227.997 C 287.357 227.996,287.330 227.940,287.223 227.872 C 287.117 227.804,286.776 227.261,286.465 226.665 C 286.154 226.068,285.701 225.287,285.457 224.929 C 285.214 224.571,285.053 224.215,285.101 224.139 C 285.148 224.062,285.107 224.000,285.011 224.000 C 284.914 224.000,284.678 223.666,284.486 223.258 C 284.295 222.851,284.033 222.430,283.904 222.323 C 283.776 222.216,283.711 222.062,283.762 221.981 C 283.812 221.900,283.779 221.833,283.688 221.833 C 283.546 221.833,283.232 221.168,283.312 221.038 C 283.328 221.014,283.189 220.831,283.003 220.632 C 282.818 220.433,282.667 220.172,282.667 220.052 C 282.667 219.932,282.609 219.833,282.540 219.833 C 282.402 219.833,282.320 219.700,281.618 218.327 C 281.066 217.249,280.791 216.781,280.638 216.665 C 280.577 216.618,280.502 216.474,280.472 216.344 C 280.441 216.213,280.304 215.968,280.167 215.798 C 280.029 215.628,279.954 215.470,280.000 215.446 C 280.046 215.423,279.833 215.087,279.528 214.702 C 279.222 214.316,279.035 213.999,279.111 213.997 C 279.187 213.996,279.165 213.940,279.061 213.872 C 278.957 213.805,278.600 213.235,278.267 212.606 C 277.934 211.977,277.514 211.275,277.333 211.045 C 277.152 210.815,277.045 210.561,277.095 210.480 C 277.145 210.400,277.119 210.333,277.036 210.333 C 276.953 210.333,276.705 209.977,276.485 209.542 C 276.264 209.106,276.027 208.725,275.957 208.694 C 275.888 208.663,275.874 208.570,275.925 208.486 C 275.977 208.402,275.938 208.333,275.839 208.333 C 275.694 208.333,275.404 207.838,275.253 207.333 C 275.168 207.049,274.560 206.169,274.448 206.168 C 274.374 206.167,274.356 206.098,274.408 206.013 C 274.460 205.929,274.387 205.745,274.246 205.603 C 274.105 205.462,273.780 204.949,273.524 204.465 C 272.925 203.330,272.605 202.771,272.496 202.667 C 272.209 202.392,271.835 201.632,271.920 201.495 C 271.975 201.406,271.936 201.333,271.835 201.333 C 271.733 201.333,271.540 201.071,271.406 200.750 C 271.272 200.429,271.097 200.167,271.017 200.167 C 270.876 200.167,270.613 199.542,270.649 199.292 C 270.659 199.223,270.597 199.167,270.511 199.167 C 270.426 199.167,270.309 199.019,270.251 198.838 C 270.194 198.657,269.905 198.151,269.610 197.713 C 269.314 197.275,268.819 196.429,268.509 195.833 C 268.198 195.237,267.899 194.713,267.843 194.667 C 267.570 194.441,267.165 193.638,267.253 193.495 C 267.308 193.406,267.286 193.333,267.205 193.333 C 267.123 193.333,266.954 193.127,266.828 192.875 C 266.703 192.623,266.431 192.182,266.224 191.896 C 266.017 191.609,265.895 191.328,265.952 191.271 C 266.009 191.213,265.956 191.167,265.833 191.167 C 265.711 191.167,265.657 191.121,265.712 191.066 C 265.768 191.010,265.743 190.879,265.657 190.774 C 265.291 190.329,264.364 188.833,264.454 188.833 C 264.508 188.833,264.439 188.702,264.301 188.542 C 264.163 188.381,263.870 187.912,263.650 187.500 C 263.430 187.088,263.204 186.713,263.148 186.667 C 263.092 186.621,262.729 185.983,262.343 185.250 C 261.956 184.517,261.533 183.798,261.403 183.653 C 261.273 183.508,261.216 183.339,261.277 183.278 C 261.339 183.217,261.297 183.167,261.185 183.167 C 261.072 183.167,261.027 183.092,261.083 183.000 C 261.140 182.908,261.121 182.833,261.041 182.833 C 260.961 182.833,260.744 182.552,260.560 182.208 C 260.012 181.187,259.762 180.776,259.542 180.536 C 259.351 180.329,259.273 180.086,259.307 179.812 C 259.314 179.754,259.173 179.573,258.993 179.411 C 258.814 179.248,258.667 179.014,258.667 178.891 C 258.667 178.768,258.592 178.667,258.500 178.667 C 258.408 178.667,258.333 178.517,258.333 178.333 C 258.333 178.150,258.273 178.000,258.199 178.000 C 258.124 178.000,257.815 177.531,257.511 176.958 C 257.207 176.385,256.843 175.785,256.703 175.625 C 256.563 175.465,256.516 175.332,256.599 175.331 C 256.682 175.329,256.668 175.273,256.567 175.206 C 256.396 175.092,255.675 173.894,255.264 173.043 C 255.165 172.837,255.023 172.669,254.948 172.668 C 254.874 172.667,254.860 172.592,254.917 172.500 C 254.973 172.408,254.949 172.333,254.863 172.333 C 254.776 172.333,254.497 171.902,254.241 171.375 C 253.985 170.848,253.593 170.173,253.368 169.875 C 253.144 169.577,253.018 169.333,253.089 169.333 C 253.160 169.333,253.100 169.202,252.956 169.042 C 252.811 168.881,252.668 168.639,252.638 168.504 C 252.586 168.268,252.513 168.158,252.035 167.589 C 251.917 167.448,251.879 167.332,251.952 167.331 C 252.024 167.329,251.999 167.273,251.896 167.206 C 251.793 167.138,251.387 166.483,250.993 165.750 C 250.600 165.017,250.141 164.239,249.974 164.022 C 249.808 163.805,249.712 163.561,249.762 163.480 C 249.812 163.400,249.772 163.333,249.673 163.333 C 249.574 163.333,249.403 163.127,249.294 162.875 C 249.184 162.623,248.914 162.173,248.694 161.875 C 248.474 161.577,248.352 161.333,248.423 161.333 C 248.494 161.333,248.433 161.202,248.289 161.042 C 248.144 160.881,248.002 160.643,247.971 160.512 C 247.941 160.381,247.788 160.118,247.631 159.928 C 247.474 159.739,247.349 159.517,247.354 159.435 C 247.358 159.354,247.299 159.241,247.223 159.185 C 247.027 159.042,246.727 158.553,246.239 157.583 C 245.741 156.596,245.458 156.115,245.305 155.998 C 245.244 155.952,245.169 155.807,245.138 155.677 C 245.108 155.547,244.989 155.322,244.874 155.178 C 244.758 155.034,244.656 154.842,244.646 154.750 C 244.637 154.658,244.414 154.313,244.152 153.982 C 243.890 153.651,243.724 153.332,243.782 153.273 C 243.841 153.215,243.806 153.167,243.706 153.167 C 243.556 153.167,243.310 152.690,243.277 152.333 C 243.272 152.287,243.133 152.105,242.968 151.927 C 242.802 151.749,242.667 151.531,242.667 151.443 C 242.667 151.354,242.491 151.049,242.276 150.766 C 242.060 150.482,241.629 149.762,241.317 149.167 C 241.005 148.571,240.704 148.046,240.648 148.000 C 240.525 147.899,240.000 146.888,239.978 146.710 C 239.969 146.640,239.748 146.313,239.485 145.982 C 239.223 145.651,239.057 145.332,239.116 145.273 C 239.174 145.215,239.130 145.167,239.018 145.167 C 238.906 145.167,238.860 145.092,238.917 145.000 C 238.973 144.908,238.952 144.833,238.869 144.833 C 238.787 144.833,238.543 144.477,238.328 144.042 C 238.112 143.606,237.775 143.025,237.577 142.750 C 237.379 142.475,236.962 141.762,236.651 141.167 C 236.339 140.571,236.027 140.058,235.957 140.027 C 235.888 139.997,235.874 139.903,235.925 139.819 C 235.977 139.735,235.938 139.667,235.839 139.667 C 235.694 139.667,235.348 139.070,235.260 138.667 C 235.238 138.567,234.786 137.838,234.176 136.917 C 233.933 136.550,233.481 135.762,233.172 135.167 C 232.864 134.571,232.566 134.046,232.510 134.000 C 232.236 133.774,231.831 132.971,231.920 132.829 C 231.975 132.740,231.953 132.667,231.871 132.667 C 231.790 132.667,231.620 132.460,231.495 132.208 C 231.370 131.956,231.098 131.516,230.891 131.229 C 230.684 130.942,230.561 130.661,230.618 130.604 C 230.675 130.547,230.630 130.500,230.518 130.500 C 230.406 130.500,230.356 130.431,230.408 130.348 C 230.460 130.264,230.443 130.170,230.370 130.139 C 230.212 130.073,229.057 128.203,228.275 126.750 C 228.078 126.383,227.866 126.045,227.804 125.998 C 227.742 125.951,227.380 125.313,227.000 124.581 C 226.619 123.849,226.201 123.131,226.070 122.986 C 225.939 122.842,225.883 122.673,225.944 122.611 C 226.005 122.550,225.964 122.500,225.851 122.500 C 225.739 122.500,225.693 122.425,225.750 122.333 C 225.807 122.242,225.787 122.167,225.707 122.167 C 225.627 122.167,225.411 121.885,225.227 121.542 C 224.679 120.521,224.429 120.109,224.208 119.870 C 224.018 119.662,223.939 119.420,223.974 119.145 C 223.981 119.087,223.840 118.907,223.660 118.744 C 223.480 118.581,223.333 118.347,223.333 118.224 C 223.333 118.101,223.258 118.000,223.167 118.000 C 223.075 118.000,223.000 117.850,223.000 117.667 C 223.000 117.483,222.937 117.333,222.860 117.333 C 222.782 117.333,222.543 116.977,222.328 116.542 C 222.112 116.106,221.759 115.506,221.543 115.208 C 221.327 114.910,221.210 114.666,221.283 114.664 C 221.357 114.663,221.334 114.606,221.234 114.539 C 221.063 114.425,220.341 113.228,219.930 112.376 C 219.831 112.171,219.689 112.002,219.615 112.001 C 219.541 112.001,219.527 111.925,219.583 111.833 C 219.640 111.742,219.619 111.667,219.536 111.667 C 219.453 111.667,219.205 111.310,218.985 110.875 C 218.764 110.440,218.527 110.058,218.458 110.028 C 218.390 109.997,218.333 109.896,218.333 109.804 C 218.333 109.711,218.178 109.417,217.989 109.151 C 217.799 108.884,217.698 108.667,217.764 108.667 C 217.831 108.667,217.767 108.535,217.622 108.375 C 217.478 108.215,217.335 107.973,217.305 107.837 C 217.252 107.601,217.180 107.491,216.702 106.922 C 216.584 106.782,216.546 106.666,216.618 106.664 C 216.691 106.663,216.668 106.606,216.567 106.539 C 216.467 106.472,215.163 104.317,213.671 101.750 C 212.178 99.183,210.450 96.221,209.831 95.167 C 209.212 94.112,207.771 91.638,206.629 89.667 C 203.096 83.568,200.332 78.826,199.246 77.000 C 198.674 76.037,197.999 74.837,197.748 74.333 C 197.496 73.829,197.241 73.379,197.183 73.333 C 196.911 73.122,196.497 72.307,196.586 72.162 C 196.641 72.073,196.620 72.000,196.538 72.000 C 196.456 72.000,196.287 71.794,196.162 71.542 C 196.036 71.290,195.764 70.849,195.557 70.562 C 195.350 70.276,195.228 69.994,195.285 69.937 C 195.342 69.880,195.297 69.833,195.185 69.833 C 195.072 69.833,195.023 69.765,195.075 69.681 C 195.126 69.597,195.109 69.503,195.037 69.473 C 194.879 69.406,193.724 67.537,192.942 66.083 C 192.745 65.717,192.533 65.378,192.471 65.331 C 192.409 65.284,192.047 64.647,191.666 63.915 C 191.286 63.182,190.867 62.465,190.737 62.320 C 190.606 62.175,190.549 62.006,190.611 61.945 C 190.672 61.883,190.630 61.833,190.518 61.833 C 190.406 61.833,190.360 61.758,190.417 61.667 C 190.473 61.575,190.454 61.500,190.374 61.500 C 190.294 61.500,190.078 61.219,189.893 60.875 C 189.346 59.854,189.095 59.443,188.875 59.203 C 188.685 58.996,188.606 58.753,188.640 58.478 C 188.648 58.420,188.506 58.240,188.327 58.077 C 188.147 57.915,188.000 57.681,188.000 57.558 C 188.000 57.434,187.944 57.333,187.875 57.332 C 187.806 57.331,187.668 57.163,187.567 56.957 C 187.034 55.872,186.088 54.235,185.930 54.128 C 185.822 54.054,185.817 54.003,185.917 54.000 C 186.012 53.997,186.004 53.943,185.898 53.872 C 185.796 53.805,185.428 53.225,185.079 52.583 C 184.730 51.942,184.363 51.362,184.264 51.294 C 184.165 51.227,184.153 51.171,184.237 51.169 C 184.322 51.168,184.221 50.985,184.012 50.762 C 183.803 50.540,183.682 50.277,183.742 50.179 C 183.803 50.081,183.772 50.000,183.672 50.000 C 183.573 50.000,183.419 49.807,183.329 49.572 C 183.239 49.337,182.970 48.887,182.730 48.572 C 182.490 48.257,182.352 48.000,182.423 48.000 C 182.494 48.000,182.433 47.869,182.289 47.708 C 182.144 47.548,182.002 47.309,181.971 47.178 C 181.941 47.047,181.767 46.760,181.583 46.540 C 181.400 46.320,181.275 46.098,181.306 46.047 C 181.337 45.996,181.299 45.908,181.223 45.852 C 181.027 45.709,180.727 45.220,180.239 44.250 C 179.741 43.263,179.458 42.781,179.305 42.665 C 179.244 42.618,179.169 42.474,179.138 42.344 C 179.108 42.213,178.971 41.968,178.833 41.798 C 178.696 41.628,178.583 41.435,178.583 41.370 C 178.583 41.304,178.416 41.017,178.213 40.731 C 178.010 40.446,177.891 40.165,177.949 40.106 C 178.127 39.929,177.945 40.010,177.333 40.383 " stroke="none" fill="#fb8484" fill-rule="evenodd"></path><path id="path4" d="M180.327 44.458 C 180.518 44.848,180.702 45.167,180.738 45.167 C 180.884 45.167,180.625 44.554,180.315 44.167 C 179.992 43.764,179.993 43.773,180.327 44.458 M169.833 44.667 C 169.512 44.842,169.310 44.989,169.383 44.993 C 169.560 45.002,170.500 44.513,170.500 44.412 C 170.500 44.303,170.490 44.307,169.833 44.667 M161.218 49.762 L 160.750 50.191 161.292 49.814 C 161.590 49.607,161.833 49.414,161.833 49.385 C 161.833 49.254,161.649 49.367,161.218 49.762 M183.667 50.313 C 183.667 50.393,183.773 50.548,183.904 50.656 C 184.098 50.817,184.124 50.791,184.051 50.510 C 183.963 50.175,183.667 50.023,183.667 50.313 M153.792 54.011 C 153.448 54.193,153.167 54.379,153.167 54.424 C 153.167 54.470,153.467 54.354,153.833 54.167 C 154.200 53.980,154.500 53.791,154.500 53.747 C 154.500 53.638,154.499 53.638,153.792 54.011 M151.991 55.102 C 151.396 55.554,151.431 55.566,152.208 55.176 C 152.460 55.050,152.667 54.884,152.667 54.807 C 152.667 54.603,152.623 54.622,151.991 55.102 M187.557 56.915 C 187.663 57.144,187.809 57.331,187.881 57.332 C 188.034 57.334,187.735 56.728,187.515 56.592 C 187.432 56.541,187.451 56.687,187.557 56.915 M188.685 58.875 C 188.796 59.127,188.944 59.333,189.015 59.333 C 189.085 59.333,189.177 59.465,189.218 59.625 C 189.272 59.829,189.299 59.841,189.308 59.667 C 189.315 59.529,189.133 59.192,188.903 58.917 L 188.484 58.417 188.685 58.875 M153.275 59.792 C 153.317 59.952,153.501 60.271,153.685 60.500 C 154.008 60.903,154.007 60.893,153.673 60.208 C 153.311 59.469,153.144 59.293,153.275 59.792 M191.667 63.925 C 191.667 64.135,192.428 65.331,192.562 65.332 C 192.642 65.333,192.585 65.165,192.435 64.958 C 192.286 64.752,192.091 64.415,192.002 64.208 C 191.855 63.864,191.667 63.705,191.667 63.925 M193.107 66.413 C 193.339 66.827,193.561 67.167,193.601 67.167 C 193.718 67.167,193.020 65.865,192.845 65.757 C 192.758 65.703,192.875 65.998,193.107 66.413 M158.333 68.373 C 158.333 68.547,159.059 69.830,159.121 69.768 C 159.155 69.734,159.021 69.416,158.824 69.061 C 158.438 68.369,158.333 68.223,158.333 68.373 M196.528 72.250 C 196.747 72.802,197.073 73.333,197.193 73.333 C 197.397 73.333,197.378 73.290,196.898 72.657 C 196.658 72.342,196.492 72.158,196.528 72.250 M197.783 74.415 C 197.935 74.734,198.089 74.966,198.125 74.930 C 198.202 74.854,197.696 73.833,197.582 73.833 C 197.540 73.833,197.630 74.095,197.783 74.415 M161.994 74.822 C 162.178 75.182,162.400 75.522,162.488 75.576 C 162.576 75.630,162.458 75.335,162.226 74.921 C 161.709 73.995,161.534 73.920,161.994 74.822 M162.667 76.051 C 162.667 76.079,162.863 76.360,163.102 76.676 C 163.554 77.271,163.566 77.235,163.176 76.458 C 162.990 76.087,162.667 75.829,162.667 76.051 M166.661 82.822 C 166.845 83.182,167.067 83.522,167.155 83.576 C 167.242 83.630,167.125 83.335,166.893 82.921 C 166.375 81.995,166.201 81.920,166.661 82.822 M167.495 84.324 C 167.764 84.826,168.029 84.914,167.808 84.427 C 167.701 84.192,167.548 84.000,167.467 84.000 C 167.387 84.000,167.400 84.146,167.495 84.324 M170.673 89.698 C 170.676 89.818,170.867 90.142,171.097 90.417 L 171.516 90.917 171.315 90.458 C 171.204 90.206,171.046 90.000,170.963 90.000 C 170.881 90.000,170.857 89.930,170.910 89.845 C 170.962 89.760,170.929 89.643,170.836 89.585 C 170.743 89.527,170.669 89.579,170.673 89.698 M175.359 97.667 C 175.351 97.804,175.534 98.142,175.764 98.417 L 176.183 98.917 175.981 98.458 C 175.870 98.206,175.722 98.000,175.652 98.000 C 175.582 98.000,175.490 97.869,175.448 97.708 C 175.395 97.505,175.368 97.492,175.359 97.667 M218.224 109.582 C 218.330 109.810,218.476 109.998,218.548 109.999 C 218.701 110.000,218.401 109.395,218.181 109.259 C 218.099 109.208,218.118 109.353,218.224 109.582 M218.667 110.222 C 218.667 110.337,219.323 111.539,219.455 111.667 C 219.503 111.712,219.484 111.563,219.414 111.333 C 219.294 110.940,218.667 110.007,218.667 110.222 M224.019 119.542 C 224.130 119.794,224.278 120.000,224.348 120.000 C 224.418 120.000,224.510 120.131,224.552 120.292 C 224.605 120.495,224.632 120.508,224.641 120.333 C 224.649 120.196,224.466 119.858,224.236 119.583 L 223.817 119.083 224.019 119.542 M227.000 124.592 C 227.000 124.801,227.761 125.998,227.895 125.999 C 227.975 125.999,227.918 125.831,227.769 125.625 C 227.619 125.419,227.424 125.081,227.336 124.875 C 227.188 124.530,227.000 124.372,227.000 124.592 M228.440 127.079 C 228.672 127.494,228.894 127.833,228.934 127.833 C 229.051 127.833,228.354 126.532,228.179 126.424 C 228.091 126.370,228.209 126.665,228.440 127.079 M231.861 132.917 C 232.080 133.469,232.406 134.000,232.527 134.000 C 232.730 134.000,232.711 133.957,232.231 133.324 C 231.991 133.008,231.825 132.825,231.861 132.917 M233.167 135.167 C 233.354 135.533,233.544 135.833,233.590 135.833 C 233.636 135.833,233.520 135.533,233.333 135.167 C 233.146 134.800,232.956 134.500,232.910 134.500 C 232.864 134.500,232.980 134.800,233.167 135.167 M236.167 140.237 C 236.167 140.397,237.280 142.312,237.634 142.762 C 238.042 143.280,237.917 143.006,237.247 141.917 C 237.022 141.550,236.715 141.006,236.566 140.708 C 236.324 140.224,236.167 140.038,236.167 140.237 M201.917 143.333 C 202.149 143.792,202.376 144.167,202.422 144.167 C 202.468 144.167,202.316 143.792,202.083 143.333 C 201.851 142.875,201.624 142.500,201.578 142.500 C 201.532 142.500,201.684 142.875,201.917 143.333 M202.667 144.718 C 202.667 144.746,202.863 145.027,203.102 145.343 C 203.554 145.937,203.566 145.902,203.176 145.125 C 202.990 144.754,202.667 144.495,202.667 144.718 M240.357 147.561 C 240.474 147.823,240.601 147.947,240.638 147.836 C 240.675 147.725,240.579 147.510,240.424 147.359 C 240.161 147.101,240.157 147.114,240.357 147.561 M240.833 148.208 C 240.833 148.352,241.842 150.211,242.032 150.417 C 242.280 150.685,241.982 149.969,241.640 149.474 C 241.471 149.231,241.331 148.968,241.328 148.891 C 241.322 148.726,240.833 148.052,240.833 148.208 M206.667 151.500 C 206.854 151.867,207.044 152.167,207.090 152.167 C 207.136 152.167,207.020 151.867,206.833 151.500 C 206.646 151.133,206.456 150.833,206.410 150.833 C 206.364 150.833,206.480 151.133,206.667 151.500 M207.333 152.718 C 207.333 152.746,207.529 153.027,207.769 153.343 C 208.220 153.937,208.232 153.902,207.843 153.125 C 207.657 152.754,207.333 152.495,207.333 152.718 M246.327 157.792 C 246.518 158.181,246.702 158.500,246.738 158.500 C 246.884 158.500,246.625 157.888,246.315 157.500 C 245.992 157.097,245.993 157.107,246.327 157.792 M210.673 158.365 C 210.676 158.485,210.867 158.808,211.097 159.083 L 211.516 159.583 211.315 159.125 C 211.204 158.873,211.046 158.667,210.963 158.667 C 210.881 158.667,210.857 158.597,210.910 158.512 C 210.962 158.426,210.929 158.309,210.836 158.252 C 210.743 158.194,210.669 158.245,210.673 158.365 M215.919 167.333 C 216.039 167.727,216.667 168.660,216.667 168.444 C 216.667 168.330,216.010 167.128,215.878 167.000 C 215.831 166.954,215.849 167.104,215.919 167.333 M254.000 170.889 C 254.000 171.003,254.657 172.206,254.789 172.333 C 254.836 172.379,254.818 172.229,254.748 172.000 C 254.628 171.606,254.000 170.674,254.000 170.889 M254.958 172.610 C 255.073 172.657,255.168 172.782,255.170 172.889 C 255.172 172.996,255.325 173.271,255.510 173.500 C 255.827 173.894,255.826 173.878,255.489 173.208 C 255.293 172.819,255.047 172.506,254.942 172.513 C 254.815 172.522,254.821 172.555,254.958 172.610 M259.352 180.208 C 259.463 180.460,259.611 180.667,259.681 180.667 C 259.751 180.667,259.843 180.798,259.885 180.958 C 259.938 181.162,259.965 181.174,259.975 181.000 C 259.982 180.862,259.800 180.525,259.569 180.250 L 259.151 179.750 259.352 180.208 M223.941 181.125 C 223.983 181.285,224.168 181.604,224.352 181.833 C 224.675 182.236,224.674 182.227,224.339 181.542 C 223.978 180.802,223.810 180.627,223.941 181.125 M262.859 186.239 C 262.966 186.474,263.119 186.667,263.199 186.667 C 263.370 186.667,263.076 186.067,262.831 185.915 C 262.736 185.856,262.748 185.995,262.859 186.239 M263.774 187.746 C 264.006 188.161,264.228 188.500,264.268 188.500 C 264.385 188.500,263.687 187.199,263.512 187.091 C 263.424 187.036,263.542 187.331,263.774 187.746 M228.601 189.083 C 228.667 189.267,228.843 189.604,228.991 189.833 C 229.140 190.063,229.366 190.456,229.492 190.708 C 229.619 190.960,229.750 191.138,229.784 191.105 C 229.818 191.071,229.608 190.602,229.317 190.063 C 228.745 189.002,228.402 188.534,228.601 189.083 M267.195 193.583 C 267.413 194.135,267.740 194.667,267.860 194.667 C 268.063 194.667,268.044 194.623,267.564 193.991 C 267.325 193.675,267.158 193.492,267.195 193.583 M268.500 195.833 C 268.687 196.200,268.878 196.500,268.923 196.500 C 268.969 196.500,268.854 196.200,268.667 195.833 C 268.480 195.467,268.289 195.167,268.243 195.167 C 268.197 195.167,268.313 195.467,268.500 195.833 M232.902 196.500 C 233.054 196.729,233.222 197.048,233.276 197.208 C 233.329 197.369,233.441 197.500,233.525 197.500 C 233.709 197.500,233.480 197.076,232.984 196.500 L 232.626 196.083 232.902 196.500 M271.858 201.583 C 272.116 202.200,272.409 202.667,272.538 202.667 C 272.621 202.667,272.521 202.423,272.315 202.125 C 271.878 201.491,271.761 201.353,271.858 201.583 M237.333 204.167 C 237.520 204.533,237.711 204.833,237.757 204.833 C 237.803 204.833,237.687 204.533,237.500 204.167 C 237.313 203.800,237.122 203.500,237.077 203.500 C 237.031 203.500,237.146 203.800,237.333 204.167 M238.231 205.708 C 238.381 205.915,238.580 206.262,238.673 206.481 C 238.766 206.700,238.884 206.838,238.935 206.788 C 239.055 206.668,238.294 205.336,238.105 205.335 C 238.025 205.334,238.082 205.502,238.231 205.708 M276.167 208.873 C 276.167 209.047,276.892 210.330,276.955 210.268 C 276.989 210.234,276.855 209.916,276.657 209.561 C 276.271 208.869,276.167 208.723,276.167 208.873 M277.156 210.792 C 277.248 210.952,277.485 211.271,277.682 211.500 L 278.041 211.917 277.764 211.500 C 277.612 211.271,277.444 210.952,277.391 210.792 C 277.338 210.631,277.226 210.500,277.141 210.500 C 277.054 210.500,277.060 210.625,277.156 210.792 M241.339 211.032 C 241.343 211.152,241.534 211.475,241.764 211.750 L 242.183 212.250 241.981 211.792 C 241.870 211.540,241.712 211.333,241.630 211.333 C 241.548 211.333,241.523 211.264,241.576 211.178 C 241.629 211.093,241.596 210.976,241.503 210.918 C 241.410 210.861,241.336 210.912,241.339 211.032 M281.661 218.458 C 281.851 218.848,282.036 219.167,282.071 219.167 C 282.218 219.167,281.959 218.554,281.648 218.167 C 281.325 217.764,281.326 217.773,281.661 218.458 M246.025 219.000 C 246.018 219.137,246.200 219.475,246.431 219.750 L 246.849 220.250 246.648 219.792 C 246.537 219.540,246.389 219.333,246.319 219.333 C 246.249 219.333,246.157 219.202,246.115 219.042 C 246.062 218.838,246.035 218.826,246.025 219.000 M250.511 226.792 C 250.707 227.181,250.953 227.494,251.058 227.487 C 251.185 227.478,251.179 227.445,251.042 227.390 C 250.927 227.343,250.832 227.218,250.830 227.111 C 250.828 227.004,250.675 226.729,250.490 226.500 C 250.173 226.106,250.174 226.122,250.511 226.792 M251.252 228.000 C 251.372 228.394,252.000 229.326,252.000 229.111 C 252.000 228.997,251.343 227.794,251.211 227.667 C 251.164 227.621,251.182 227.771,251.252 228.000 M252.162 229.657 C 252.424 230.147,252.663 230.227,252.443 229.752 C 252.337 229.523,252.191 229.335,252.119 229.335 C 252.047 229.334,252.066 229.479,252.162 229.657 M289.672 232.292 C 289.675 232.360,289.797 232.567,289.944 232.750 C 290.179 233.043,290.199 233.046,290.106 232.778 C 290.048 232.610,290.000 232.404,290.000 232.320 C 290.000 232.236,289.925 232.167,289.833 232.167 C 289.742 232.167,289.669 232.223,289.672 232.292 M290.292 233.277 C 290.406 233.323,290.502 233.449,290.504 233.556 C 290.506 233.662,290.659 233.938,290.843 234.167 C 291.161 234.561,291.160 234.545,290.823 233.875 C 290.627 233.485,290.380 233.173,290.275 233.180 C 290.148 233.189,290.154 233.222,290.292 233.277 M293.557 238.915 C 293.663 239.144,293.809 239.331,293.881 239.332 C 294.034 239.334,293.735 238.728,293.515 238.592 C 293.432 238.541,293.451 238.687,293.557 238.915 M294.033 239.583 C 294.210 240.093,294.919 241.333,295.033 241.333 C 295.107 241.333,295.173 241.465,295.180 241.625 C 295.187 241.785,295.230 241.827,295.274 241.717 C 295.319 241.607,295.211 241.307,295.033 241.050 C 294.856 240.793,294.545 240.321,294.343 240.000 C 294.141 239.679,294.001 239.492,294.033 239.583 M259.275 241.792 C 259.317 241.952,259.501 242.271,259.685 242.500 C 260.008 242.903,260.007 242.893,259.673 242.208 C 259.311 241.469,259.144 241.293,259.275 241.792 M299.352 248.875 C 299.463 249.127,299.611 249.333,299.681 249.333 C 299.751 249.333,299.843 249.465,299.885 249.625 C 299.938 249.829,299.965 249.841,299.975 249.667 C 299.982 249.529,299.800 249.192,299.569 248.917 L 299.151 248.417 299.352 248.875 M263.934 249.750 C 264.000 249.933,264.176 250.271,264.325 250.500 C 264.474 250.729,264.699 251.123,264.826 251.375 C 264.952 251.627,265.084 251.805,265.118 251.771 C 265.151 251.737,264.941 251.269,264.650 250.730 C 264.078 249.669,263.735 249.200,263.934 249.750 M303.774 256.413 C 304.006 256.827,304.228 257.167,304.268 257.167 C 304.385 257.167,303.687 255.865,303.512 255.757 C 303.424 255.703,303.542 255.998,303.774 256.413 M269.038 258.571 C 269.244 258.886,269.435 259.121,269.462 259.094 C 269.544 259.011,268.925 258.002,268.790 258.001 C 268.721 258.000,268.832 258.257,269.038 258.571 M307.823 263.458 C 307.915 263.619,308.152 263.938,308.349 264.167 L 308.708 264.583 308.431 264.167 C 308.279 263.938,308.111 263.619,308.058 263.458 C 308.005 263.298,307.892 263.167,307.808 263.167 C 307.721 263.167,307.727 263.292,307.823 263.458 M272.661 264.822 C 272.845 265.182,273.067 265.522,273.155 265.576 C 273.242 265.630,273.125 265.335,272.893 264.921 C 272.375 263.995,272.201 263.920,272.661 264.822 M273.333 266.051 C 273.333 266.079,273.529 266.360,273.769 266.676 C 274.220 267.271,274.232 267.235,273.843 266.458 C 273.657 266.087,273.333 265.829,273.333 266.051 M311.500 269.540 C 311.500 269.714,312.225 270.997,312.288 270.934 C 312.322 270.900,312.188 270.582,311.990 270.228 C 311.605 269.536,311.500 269.389,311.500 269.540 M312.489 271.458 C 312.582 271.619,312.819 271.938,313.016 272.167 L 313.374 272.583 313.098 272.167 C 312.946 271.938,312.778 271.619,312.724 271.458 C 312.671 271.298,312.559 271.167,312.475 271.167 C 312.387 271.167,312.394 271.292,312.489 271.458 M277.333 272.833 C 277.520 273.200,277.711 273.500,277.757 273.500 C 277.803 273.500,277.687 273.200,277.500 272.833 C 277.313 272.467,277.122 272.167,277.077 272.167 C 277.031 272.167,277.146 272.467,277.333 272.833 M278.000 274.051 C 278.000 274.079,278.196 274.360,278.436 274.676 C 278.887 275.271,278.899 275.235,278.510 274.458 C 278.324 274.087,278.000 273.829,278.000 274.051 M315.690 276.894 C 315.808 277.156,315.934 277.280,315.971 277.169 C 316.008 277.058,315.912 276.843,315.757 276.692 C 315.494 276.434,315.490 276.447,315.690 276.894 M316.994 279.125 C 317.184 279.515,317.369 279.833,317.404 279.833 C 317.551 279.833,317.292 279.221,316.982 278.833 C 316.659 278.430,316.659 278.440,316.994 279.125 M281.339 279.698 C 281.343 279.818,281.534 280.142,281.764 280.417 L 282.183 280.917 281.981 280.458 C 281.870 280.206,281.712 280.000,281.630 280.000 C 281.548 280.000,281.523 279.930,281.576 279.845 C 281.629 279.760,281.596 279.643,281.503 279.585 C 281.410 279.527,281.336 279.579,281.339 279.698 M320.616 285.346 C 320.781 285.628,321.026 285.947,321.160 286.054 C 321.294 286.162,321.238 286.013,321.035 285.724 C 320.832 285.435,320.667 285.116,320.667 285.016 C 320.667 284.916,320.587 284.833,320.491 284.833 C 320.394 284.833,320.450 285.064,320.616 285.346 M303.500 317.781 C 303.500 317.879,303.612 318.053,303.750 318.167 C 303.887 318.281,304.000 318.477,304.000 318.604 C 304.000 318.730,304.075 318.833,304.167 318.833 C 304.398 318.833,304.387 318.804,303.917 318.167 C 303.688 317.856,303.500 317.682,303.500 317.781 M304.333 319.040 C 304.333 319.214,305.059 320.497,305.121 320.434 C 305.155 320.400,305.021 320.082,304.824 319.728 C 304.438 319.036,304.333 318.889,304.333 319.040 M305.333 320.868 C 305.333 321.010,305.458 321.229,305.611 321.355 C 305.864 321.564,305.869 321.548,305.671 321.167 C 305.381 320.608,305.333 320.566,305.333 320.868 M342.524 322.917 C 342.783 323.533,343.076 324.000,343.205 324.000 C 343.288 324.000,343.188 323.756,342.982 323.458 C 342.544 322.825,342.428 322.687,342.524 322.917 M343.774 325.079 C 344.006 325.494,344.228 325.833,344.268 325.833 C 344.385 325.833,343.687 324.532,343.512 324.424 C 343.424 324.370,343.542 324.665,343.774 325.079 M308.236 325.833 C 308.388 326.063,308.556 326.381,308.609 326.542 C 308.662 326.702,308.774 326.833,308.859 326.833 C 309.043 326.833,308.813 326.409,308.318 325.833 L 307.959 325.417 308.236 325.833 M347.823 332.125 C 347.915 332.285,348.152 332.604,348.349 332.833 L 348.708 333.250 348.431 332.833 C 348.279 332.604,348.111 332.285,348.058 332.125 C 348.005 331.965,347.892 331.833,347.808 331.833 C 347.721 331.833,347.727 331.958,347.823 332.125 M312.667 333.500 C 312.854 333.867,313.044 334.167,313.090 334.167 C 313.136 334.167,313.020 333.867,312.833 333.500 C 312.646 333.133,312.456 332.833,312.410 332.833 C 312.364 332.833,312.480 333.133,312.667 333.500 M313.333 334.718 C 313.333 334.746,313.529 335.027,313.769 335.343 C 314.220 335.937,314.232 335.902,313.843 335.125 C 313.657 334.754,313.333 334.495,313.333 334.718 M351.024 337.561 C 351.141 337.823,351.268 337.947,351.305 337.836 C 351.342 337.725,351.245 337.510,351.091 337.359 C 350.828 337.101,350.823 337.114,351.024 337.561 M351.500 338.206 C 351.500 338.380,352.225 339.664,352.288 339.601 C 352.322 339.567,352.188 339.249,351.990 338.895 C 351.605 338.203,351.500 338.056,351.500 338.206 M338.375 347.537 C 338.169 347.636,338.000 347.784,338.000 347.865 C 338.000 348.036,338.599 347.744,338.751 347.499 C 338.872 347.302,338.859 347.304,338.375 347.537 M321.346 348.355 C 321.339 348.504,321.443 348.717,321.577 348.828 C 321.711 348.939,321.871 349.192,321.933 349.390 C 322.044 349.744,322.667 350.640,322.667 350.445 C 322.667 350.299,321.804 348.765,321.666 348.667 C 321.602 348.621,321.507 348.471,321.455 348.333 C 321.375 348.124,321.358 348.127,321.346 348.355 M336.792 348.511 C 336.448 348.693,336.167 348.879,336.167 348.924 C 336.167 348.970,336.467 348.854,336.833 348.667 C 337.200 348.480,337.500 348.291,337.500 348.247 C 337.500 348.138,337.499 348.138,336.792 348.511 M322.828 350.991 C 323.090 351.481,323.330 351.561,323.109 351.085 C 323.003 350.856,322.858 350.669,322.786 350.668 C 322.714 350.667,322.733 350.812,322.828 350.991 " stroke="none" fill="#f8adae" fill-rule="evenodd"></path></g></svg>